<svg xmlns="http://www.w3.org/2000/svg" xmlns:xlink="http://www.w3.org/1999/xlink" contentStyleType="text/css" data-diagram-type="DESCRIPTION" height="630px" preserveAspectRatio="none" style="width:2149px;height:630px;background:#FFFFFF;" version="1.1" viewBox="0 0 2149 630" width="2149px" zoomAndPan="magnify"><title>Setup Environment System - Clean Architecture</title><defs/><g><g class="title" data-source-line="1"><text fill="#000000" font-family="sans-serif" font-size="14" font-weight="bold" lengthAdjust="spacing" textLength="344.2852" x="895.8324" y="23.5352">Setup Environment System - Clean Architecture</text></g><!--cluster External--><g class="cluster" data-entity="External" data-source-line="4" data-uid="ent0002" id="cluster_External"><path d="M167.5,525.9483 L227.3984,525.9483 A3.75,3.75 0 0 1 229.8984,528.4483 L236.8984,548.4366 L937.5,548.4366 A2.5,2.5 0 0 1 940,550.9366 L940,620.9383 A2.5,2.5 0 0 1 937.5,623.4383 L167.5,623.4383 A2.5,2.5 0 0 1 165,620.9383 L165,528.4483 A2.5,2.5 0 0 1 167.5,525.9483" fill="none" style="stroke:#000000;stroke-width:1.5;"/><line style="stroke:#000000;stroke-width:1.5;" x1="165" x2="236.8984" y1="548.4366" y2="548.4366"/><text fill="#000000" font-family="sans-serif" font-size="14" font-weight="bold" lengthAdjust="spacing" textLength="58.8984" x="169" y="541.4834">External</text></g><!--cluster Presentation--><g class="cluster" data-entity="Presentation" data-source-line="14" data-uid="ent0009" id="cluster_Presentation"><path d="M560.5,43.4883 L652.2334,43.4883 A3.75,3.75 0 0 1 654.7334,45.9883 L661.7334,65.9766 L661.5,65.9766 A2.5,2.5 0 0 1 664,68.4766 L664,138.4783 A2.5,2.5 0 0 1 661.5,140.9783 L560.5,140.9783 A2.5,2.5 0 0 1 558,138.4783 L558,45.9883 A2.5,2.5 0 0 1 560.5,43.4883" fill="none" style="stroke:#000000;stroke-width:1.5;"/><line style="stroke:#000000;stroke-width:1.5;" x1="558" x2="661.7334" y1="65.9766" y2="65.9766"/><text fill="#000000" font-family="sans-serif" font-size="14" font-weight="bold" lengthAdjust="spacing" textLength="90.7334" x="562" y="59.0234">Presentation</text></g><!--cluster Application--><g class="cluster" data-entity="Application" data-source-line="19" data-uid="ent0011" id="cluster_Application"><path d="M108.5,164.9783 L191.5107,164.9783 A3.75,3.75 0 0 1 194.0107,167.4783 L201.0107,187.4666 L846.5,187.4666 A2.5,2.5 0 0 1 849,189.9666 L849,377.9583 A2.5,2.5 0 0 1 846.5,380.4583 L108.5,380.4583 A2.5,2.5 0 0 1 106,377.9583 L106,167.4783 A2.5,2.5 0 0 1 108.5,164.9783" fill="none" style="stroke:#000000;stroke-width:1.5;"/><line style="stroke:#000000;stroke-width:1.5;" x1="106" x2="201.0107" y1="187.4666" y2="187.4666"/><text fill="#000000" font-family="sans-serif" font-size="14" font-weight="bold" lengthAdjust="spacing" textLength="82.0107" x="110" y="180.5134">Application</text></g><!--cluster Domain--><g class="cluster" data-entity="Domain" data-source-line="31" data-uid="ent0019" id="cluster_Domain"><path d="M875.5,277.2183 L932.0967,277.2183 A3.75,3.75 0 0 1 934.5967,279.7183 L941.5967,299.7066 L1868.5,299.7066 A2.5,2.5 0 0 1 1871,302.2066 L1871,372.2083 A2.5,2.5 0 0 1 1868.5,374.7083 L875.5,374.7083 A2.5,2.5 0 0 1 873,372.2083 L873,279.7183 A2.5,2.5 0 0 1 875.5,277.2183" fill="none" style="stroke:#000000;stroke-width:1.5;"/><line style="stroke:#000000;stroke-width:1.5;" x1="873" x2="941.5967" y1="299.7066" y2="299.7066"/><text fill="#000000" font-family="sans-serif" font-size="14" font-weight="bold" lengthAdjust="spacing" textLength="55.5967" x="877" y="292.7534">Domain</text></g><!--cluster Infrastructure--><g class="cluster" data-entity="Infrastructure" data-source-line="40" data-uid="ent0025" id="cluster_Infrastructure"><path d="M8.5,404.4583 L109.7695,404.4583 A3.75,3.75 0 0 1 112.2695,406.9583 L119.2695,426.9466 L835.5,426.9466 A2.5,2.5 0 0 1 838,429.4466 L838,499.4483 A2.5,2.5 0 0 1 835.5,501.9483 L8.5,501.9483 A2.5,2.5 0 0 1 6,499.4483 L6,406.9583 A2.5,2.5 0 0 1 8.5,404.4583" fill="none" style="stroke:#000000;stroke-width:1.5;"/><line style="stroke:#000000;stroke-width:1.5;" x1="6" x2="119.2695" y1="426.9466" y2="426.9466"/><text fill="#000000" font-family="sans-serif" font-size="14" font-weight="bold" lengthAdjust="spacing" textLength="100.2695" x="10" y="419.9934">Infrastructure</text></g><!--entity User--><g class="entity" data-entity="User" data-source-line="5" data-uid="ent0003" id="entity_User"><rect fill="#F1F1F1" height="46.4883" rx="2.5" ry="2.5" style="stroke:#181818;stroke-width:0.5;" width="70.3652" x="853.82" y="560.9483"/><rect fill="#F1F1F1" height="10" style="stroke:#181818;stroke-width:0.5;" width="15" x="904.1852" y="565.9483"/><rect fill="#F1F1F1" height="2" style="stroke:#181818;stroke-width:0.5;" width="4" x="902.1852" y="567.9483"/><rect fill="#F1F1F1" height="2" style="stroke:#181818;stroke-width:0.5;" width="4" x="902.1852" y="571.9483"/><text fill="#000000" font-family="sans-serif" font-size="14" lengthAdjust="spacing" textLength="30.3652" x="868.82" y="594.4834">User</text></g><!--entity FileSystem--><g class="entity" data-entity="FileSystem" data-source-line="6" data-uid="ent0004" id="entity_FileSystem"><rect fill="#F1F1F1" height="46.4883" rx="2.5" ry="2.5" style="stroke:#181818;stroke-width:0.5;" width="111.4971" x="437.25" y="560.9483"/><rect fill="#F1F1F1" height="10" style="stroke:#181818;stroke-width:0.5;" width="15" x="528.7471" y="565.9483"/><rect fill="#F1F1F1" height="2" style="stroke:#181818;stroke-width:0.5;" width="4" x="526.7471" y="567.9483"/><rect fill="#F1F1F1" height="2" style="stroke:#181818;stroke-width:0.5;" width="4" x="526.7471" y="571.9483"/><text fill="#000000" font-family="sans-serif" font-size="14" lengthAdjust="spacing" textLength="71.4971" x="452.25" y="594.4834">FileSystem</text></g><!--entity Homebrew--><g class="entity" data-entity="Homebrew" data-source-line="7" data-uid="ent0005" id="entity_Homebrew"><rect fill="#F1F1F1" height="46.4883" rx="2.5" ry="2.5" style="stroke:#181818;stroke-width:0.5;" width="112.8848" x="583.56" y="560.9483"/><rect fill="#F1F1F1" height="10" style="stroke:#181818;stroke-width:0.5;" width="15" x="676.4448" y="565.9483"/><rect fill="#F1F1F1" height="2" style="stroke:#181818;stroke-width:0.5;" width="4" x="674.4448" y="567.9483"/><rect fill="#F1F1F1" height="2" style="stroke:#181818;stroke-width:0.5;" width="4" x="674.4448" y="571.9483"/><text fill="#000000" font-family="sans-serif" font-size="14" lengthAdjust="spacing" textLength="72.8848" x="598.56" y="594.4834">Homebrew</text></g><!--entity Git--><g class="entity" data-entity="Git" data-source-line="8" data-uid="ent0006" id="entity_Git"><rect fill="#F1F1F1" height="46.4883" rx="2.5" ry="2.5" style="stroke:#181818;stroke-width:0.5;" width="59.4004" x="343.3" y="560.9483"/><rect fill="#F1F1F1" height="10" style="stroke:#181818;stroke-width:0.5;" width="15" x="382.7004" y="565.9483"/><rect fill="#F1F1F1" height="2" style="stroke:#181818;stroke-width:0.5;" width="4" x="380.7004" y="567.9483"/><rect fill="#F1F1F1" height="2" style="stroke:#181818;stroke-width:0.5;" width="4" x="380.7004" y="571.9483"/><text fill="#000000" font-family="sans-serif" font-size="14" lengthAdjust="spacing" textLength="19.4004" x="358.3" y="594.4834">Git</text></g><!--entity GitHub--><g class="entity" data-entity="GitHub" data-source-line="9" data-uid="ent0007" id="entity_GitHub"><rect fill="#F1F1F1" height="46.4883" rx="2.5" ry="2.5" style="stroke:#181818;stroke-width:0.5;" width="87.1885" x="731.41" y="560.9483"/><rect fill="#F1F1F1" height="10" style="stroke:#181818;stroke-width:0.5;" width="15" x="798.5985" y="565.9483"/><rect fill="#F1F1F1" height="2" style="stroke:#181818;stroke-width:0.5;" width="4" x="796.5985" y="567.9483"/><rect fill="#F1F1F1" height="2" style="stroke:#181818;stroke-width:0.5;" width="4" x="796.5985" y="571.9483"/><text fill="#000000" font-family="sans-serif" font-size="14" lengthAdjust="spacing" textLength="47.1885" x="746.41" y="594.4834">GitHub</text></g><!--entity YAML Config--><g class="entity" data-entity="YAML Config" data-source-line="10" data-uid="ent0008" id="entity_YAML Config"><rect fill="#F1F1F1" height="46.4883" rx="2.5" ry="2.5" style="stroke:#181818;stroke-width:0.5;" width="127.2334" x="181.38" y="560.9483"/><rect fill="#F1F1F1" height="10" style="stroke:#181818;stroke-width:0.5;" width="15" x="288.6134" y="565.9483"/><rect fill="#F1F1F1" height="2" style="stroke:#181818;stroke-width:0.5;" width="4" x="286.6134" y="567.9483"/><rect fill="#F1F1F1" height="2" style="stroke:#181818;stroke-width:0.5;" width="4" x="286.6134" y="571.9483"/><text fill="#000000" font-family="sans-serif" font-size="14" lengthAdjust="spacing" textLength="87.2334" x="196.38" y="594.4834">YAML Config</text></g><!--entity CLI--><g class="entity" data-entity="CLI" data-source-line="15" data-uid="ent0010" id="entity_CLI"><rect fill="#F1F1F1" height="46.4883" rx="2.5" ry="2.5" style="stroke:#181818;stroke-width:0.5;" width="61.1846" x="580.41" y="78.4883"/><rect fill="#F1F1F1" height="10" style="stroke:#181818;stroke-width:0.5;" width="15" x="621.5946" y="83.4883"/><rect fill="#F1F1F1" height="2" style="stroke:#181818;stroke-width:0.5;" width="4" x="619.5946" y="85.4883"/><rect fill="#F1F1F1" height="2" style="stroke:#181818;stroke-width:0.5;" width="4" x="619.5946" y="89.4883"/><text fill="#000000" font-family="sans-serif" font-size="14" lengthAdjust="spacing" textLength="21.1846" x="595.41" y="112.0234">CLI</text></g><!--entity SetupRepositories UseCase--><g class="entity" data-entity="SetupRepositories UseCase" data-source-line="20" data-uid="ent0012" id="entity_SetupRepositories UseCase"><rect fill="#F1F1F1" height="46.4883" rx="2.5" ry="2.5" style="stroke:#181818;stroke-width:0.5;" width="223.292" x="122.35" y="199.9783"/><rect fill="#F1F1F1" height="10" style="stroke:#181818;stroke-width:0.5;" width="15" x="325.642" y="204.9783"/><rect fill="#F1F1F1" height="2" style="stroke:#181818;stroke-width:0.5;" width="4" x="323.642" y="206.9783"/><rect fill="#F1F1F1" height="2" style="stroke:#181818;stroke-width:0.5;" width="4" x="323.642" y="210.9783"/><text fill="#000000" font-family="sans-serif" font-size="14" lengthAdjust="spacing" textLength="183.292" x="137.35" y="233.5134">SetupRepositories UseCase</text></g><!--entity InstallSoftware UseCase--><g class="entity" data-entity="InstallSoftware UseCase" data-source-line="21" data-uid="ent0013" id="entity_InstallSoftware UseCase"><rect fill="#F1F1F1" height="46.4883" rx="2.5" ry="2.5" style="stroke:#181818;stroke-width:0.5;" width="200.9111" x="632.54" y="199.9783"/><rect fill="#F1F1F1" height="10" style="stroke:#181818;stroke-width:0.5;" width="15" x="813.4511" y="204.9783"/><rect fill="#F1F1F1" height="2" style="stroke:#181818;stroke-width:0.5;" width="4" x="811.4511" y="206.9783"/><rect fill="#F1F1F1" height="2" style="stroke:#181818;stroke-width:0.5;" width="4" x="811.4511" y="210.9783"/><text fill="#000000" font-family="sans-serif" font-size="14" lengthAdjust="spacing" textLength="160.9111" x="647.54" y="233.5134">InstallSoftware UseCase</text></g><!--entity ConfigureNPMRC UseCase--><g class="entity" data-entity="ConfigureNPMRC UseCase" data-source-line="22" data-uid="ent0014" id="entity_ConfigureNPMRC UseCase"><rect fill="#F1F1F1" height="46.4883" rx="2.5" ry="2.5" style="stroke:#181818;stroke-width:0.5;" width="217.2148" x="380.39" y="199.9783"/><rect fill="#F1F1F1" height="10" style="stroke:#181818;stroke-width:0.5;" width="15" x="577.6048" y="204.9783"/><rect fill="#F1F1F1" height="2" style="stroke:#181818;stroke-width:0.5;" width="4" x="575.6048" y="206.9783"/><rect fill="#F1F1F1" height="2" style="stroke:#181818;stroke-width:0.5;" width="4" x="575.6048" y="210.9783"/><text fill="#000000" font-family="sans-serif" font-size="14" lengthAdjust="spacing" textLength="177.2148" x="395.39" y="233.5134">ConfigureNPMRC UseCase</text></g><!--entity GitService--><g class="entity" data-entity="GitService" data-source-line="24" data-uid="ent0015" id="entity_GitService"><ellipse cx="322" cy="335.4583" fill="#F1F1F1" rx="8" ry="8" style="stroke:#181818;stroke-width:0.5;"/><text fill="#000000" font-family="sans-serif" font-size="14" lengthAdjust="spacing" textLength="66.7324" x="288.6338" y="365.9934">GitService</text></g><!--entity SoftwareService--><g class="entity" data-entity="SoftwareService" data-source-line="25" data-uid="ent0016" id="entity_SoftwareService"><ellipse cx="733" cy="335.4583" fill="#F1F1F1" rx="8" ry="8" style="stroke:#181818;stroke-width:0.5;"/><text fill="#000000" font-family="sans-serif" font-size="14" lengthAdjust="spacing" textLength="105.9023" x="680.0488" y="365.9934">SoftwareService</text></g><!--entity NPMRCService--><g class="entity" data-entity="NPMRCService" data-source-line="26" data-uid="ent0017" id="entity_NPMRCService"><ellipse cx="509" cy="335.4583" fill="#F1F1F1" rx="8" ry="8" style="stroke:#181818;stroke-width:0.5;"/><text fill="#000000" font-family="sans-serif" font-size="14" lengthAdjust="spacing" textLength="96.0107" x="460.9946" y="365.9934">NPMRCService</text></g><!--entity ConfigService--><g class="entity" data-entity="ConfigService" data-source-line="27" data-uid="ent0018" id="entity_ConfigService"><ellipse cx="184" cy="335.4583" fill="#F1F1F1" rx="8" ry="8" style="stroke:#181818;stroke-width:0.5;"/><text fill="#000000" font-family="sans-serif" font-size="14" lengthAdjust="spacing" textLength="92.2305" x="137.8848" y="365.9934">ConfigService</text></g><!--entity Repository Entity--><g class="entity" data-entity="Repository Entity" data-source-line="32" data-uid="ent0020" id="entity_Repository Entity"><rect fill="#F1F1F1" height="46.4883" rx="2.5" ry="2.5" style="stroke:#181818;stroke-width:0.5;" width="154.666" x="888.67" y="312.2183"/><rect fill="#F1F1F1" height="10" style="stroke:#181818;stroke-width:0.5;" width="15" x="1023.336" y="317.2183"/><rect fill="#F1F1F1" height="2" style="stroke:#181818;stroke-width:0.5;" width="4" x="1021.336" y="319.2183"/><rect fill="#F1F1F1" height="2" style="stroke:#181818;stroke-width:0.5;" width="4" x="1021.336" y="323.2183"/><text fill="#000000" font-family="sans-serif" font-size="14" lengthAdjust="spacing" textLength="114.666" x="903.67" y="345.7534">Repository Entity</text></g><!--entity Software Entity--><g class="entity" data-entity="Software Entity" data-source-line="33" data-uid="ent0021" id="entity_Software Entity"><rect fill="#F1F1F1" height="46.4883" rx="2.5" ry="2.5" style="stroke:#181818;stroke-width:0.5;" width="141.1104" x="1244.44" y="312.2183"/><rect fill="#F1F1F1" height="10" style="stroke:#181818;stroke-width:0.5;" width="15" x="1365.5504" y="317.2183"/><rect fill="#F1F1F1" height="2" style="stroke:#181818;stroke-width:0.5;" width="4" x="1363.5504" y="319.2183"/><rect fill="#F1F1F1" height="2" style="stroke:#181818;stroke-width:0.5;" width="4" x="1363.5504" y="323.2183"/><text fill="#000000" font-family="sans-serif" font-size="14" lengthAdjust="spacing" textLength="101.1104" x="1259.44" y="345.7534">Software Entity</text></g><!--entity NPMRC Entity--><g class="entity" data-entity="NPMRC Entity" data-source-line="34" data-uid="ent0022" id="entity_NPMRC Entity"><rect fill="#F1F1F1" height="46.4883" rx="2.5" ry="2.5" style="stroke:#181818;stroke-width:0.5;" width="131.2188" x="1078.39" y="312.2183"/><rect fill="#F1F1F1" height="10" style="stroke:#181818;stroke-width:0.5;" width="15" x="1189.6088" y="317.2183"/><rect fill="#F1F1F1" height="2" style="stroke:#181818;stroke-width:0.5;" width="4" x="1187.6088" y="319.2183"/><rect fill="#F1F1F1" height="2" style="stroke:#181818;stroke-width:0.5;" width="4" x="1187.6088" y="323.2183"/><text fill="#000000" font-family="sans-serif" font-size="14" lengthAdjust="spacing" textLength="91.2188" x="1093.39" y="345.7534">NPMRC Entity</text></g><!--entity DevFolderPath Value Object--><g class="entity" data-entity="DevFolderPath Value Object" data-source-line="35" data-uid="ent0023" id="entity_DevFolderPath Value Object"><rect fill="#F1F1F1" height="46.4883" rx="2.5" ry="2.5" style="stroke:#181818;stroke-width:0.5;" width="227.8516" x="1420.07" y="312.2183"/><rect fill="#F1F1F1" height="10" style="stroke:#181818;stroke-width:0.5;" width="15" x="1627.9216" y="317.2183"/><rect fill="#F1F1F1" height="2" style="stroke:#181818;stroke-width:0.5;" width="4" x="1625.9216" y="319.2183"/><rect fill="#F1F1F1" height="2" style="stroke:#181818;stroke-width:0.5;" width="4" x="1625.9216" y="323.2183"/><text fill="#000000" font-family="sans-serif" font-size="14" lengthAdjust="spacing" textLength="187.8516" x="1435.07" y="345.7534">DevFolderPath Value Object</text></g><!--entity Token Value Object--><g class="entity" data-entity="Token Value Object" data-source-line="36" data-uid="ent0024" id="entity_Token Value Object"><rect fill="#F1F1F1" height="46.4883" rx="2.5" ry="2.5" style="stroke:#181818;stroke-width:0.5;" width="172.5557" x="1682.72" y="312.2183"/><rect fill="#F1F1F1" height="10" style="stroke:#181818;stroke-width:0.5;" width="15" x="1835.2757" y="317.2183"/><rect fill="#F1F1F1" height="2" style="stroke:#181818;stroke-width:0.5;" width="4" x="1833.2757" y="319.2183"/><rect fill="#F1F1F1" height="2" style="stroke:#181818;stroke-width:0.5;" width="4" x="1833.2757" y="323.2183"/><text fill="#000000" font-family="sans-serif" font-size="14" lengthAdjust="spacing" textLength="132.5557" x="1697.72" y="345.7534">Token Value Object</text></g><!--entity GitPythonService--><g class="entity" data-entity="GitPythonService" data-source-line="41" data-uid="ent0026" id="entity_GitPythonService"><rect fill="#F1F1F1" height="46.4883" rx="2.5" ry="2.5" style="stroke:#181818;stroke-width:0.5;" width="152.998" x="261.5" y="439.4583"/><rect fill="#F1F1F1" height="10" style="stroke:#181818;stroke-width:0.5;" width="15" x="394.498" y="444.4583"/><rect fill="#F1F1F1" height="2" style="stroke:#181818;stroke-width:0.5;" width="4" x="392.498" y="446.4583"/><rect fill="#F1F1F1" height="2" style="stroke:#181818;stroke-width:0.5;" width="4" x="392.498" y="450.4583"/><text fill="#000000" font-family="sans-serif" font-size="14" lengthAdjust="spacing" textLength="112.998" x="276.5" y="472.9934">GitPythonService</text></g><!--entity BrewSoftwareService--><g class="entity" data-entity="BrewSoftwareService" data-source-line="42" data-uid="ent0027" id="entity_BrewSoftwareService"><rect fill="#F1F1F1" height="46.4883" rx="2.5" ry="2.5" style="stroke:#181818;stroke-width:0.5;" width="178.2705" x="643.86" y="439.4583"/><rect fill="#F1F1F1" height="10" style="stroke:#181818;stroke-width:0.5;" width="15" x="802.1305" y="444.4583"/><rect fill="#F1F1F1" height="2" style="stroke:#181818;stroke-width:0.5;" width="4" x="800.1305" y="446.4583"/><rect fill="#F1F1F1" height="2" style="stroke:#181818;stroke-width:0.5;" width="4" x="800.1305" y="450.4583"/><text fill="#000000" font-family="sans-serif" font-size="14" lengthAdjust="spacing" textLength="138.2705" x="658.86" y="472.9934">BrewSoftwareService</text></g><!--entity NPMRCFileService--><g class="entity" data-entity="NPMRCFileService" data-source-line="43" data-uid="ent0028" id="entity_NPMRCFileService"><rect fill="#F1F1F1" height="46.4883" rx="2.5" ry="2.5" style="stroke:#181818;stroke-width:0.5;" width="159.4102" x="449.29" y="439.4583"/><rect fill="#F1F1F1" height="10" style="stroke:#181818;stroke-width:0.5;" width="15" x="588.7002" y="444.4583"/><rect fill="#F1F1F1" height="2" style="stroke:#181818;stroke-width:0.5;" width="4" x="586.7002" y="446.4583"/><rect fill="#F1F1F1" height="2" style="stroke:#181818;stroke-width:0.5;" width="4" x="586.7002" y="450.4583"/><text fill="#000000" font-family="sans-serif" font-size="14" lengthAdjust="spacing" textLength="119.4102" x="464.29" y="472.9934">NPMRCFileService</text></g><!--entity RepositoryConfigService--><g class="entity" data-entity="RepositoryConfigService" data-source-line="44" data-uid="ent0029" id="entity_RepositoryConfigService"><rect fill="#F1F1F1" height="46.4883" rx="2.5" ry="2.5" style="stroke:#181818;stroke-width:0.5;" width="204.3564" x="21.82" y="439.4583"/><rect fill="#F1F1F1" height="10" style="stroke:#181818;stroke-width:0.5;" width="15" x="206.1764" y="444.4583"/><rect fill="#F1F1F1" height="2" style="stroke:#181818;stroke-width:0.5;" width="4" x="204.1764" y="446.4583"/><rect fill="#F1F1F1" height="2" style="stroke:#181818;stroke-width:0.5;" width="4" x="204.1764" y="450.4583"/><text fill="#000000" font-family="sans-serif" font-size="14" lengthAdjust="spacing" textLength="164.3564" x="36.82" y="472.9934">RepositoryConfigService</text></g><!--link User to CLI--><g class="link" data-entity-1="User" data-entity-2="CLI" data-source-line="48" data-uid="lnk30" id="link_User_CLI"><path d="M924.38,583.7083 C1129.07,585.5683 2142.95,579.4683 1871,269.2183 C1786.96,173.3383 833.6205,115.2155 647.9905,104.7655" fill="none" id="User-to-CLI" style="stroke:#181818;stroke-width:1;"/><polygon fill="#181818" points="642,104.4283,650.7609,108.9278,646.9921,104.7093,651.2106,100.9405,642,104.4283" style="stroke:#181818;stroke-width:1;"/></g><!--link CLI to SetupRepositories UseCase--><g class="link" data-entity-1="CLI" data-entity-2="SetupRepositories UseCase" data-source-line="49" data-uid="lnk31" id="link_CLI_SetupRepositories UseCase"><path d="M580.15,106.9083 C532.55,113.9283 438.78,130.0183 363,156.9783 C331.31,168.2483 302.7008,182.667 277.6208,196.647" fill="none" id="CLI-to-SetupRepositories UseCase" style="stroke:#181818;stroke-width:1;"/><polygon fill="#181818" points="272.38,199.5683,282.1887,198.6802,276.7473,197.1339,278.2937,191.6925,272.38,199.5683" style="stroke:#181818;stroke-width:1;"/></g><!--link CLI to InstallSoftware UseCase--><g class="link" data-entity-1="CLI" data-entity-2="InstallSoftware UseCase" data-source-line="50" data-uid="lnk32" id="link_CLI_InstallSoftware UseCase"><path d="M633.95,125.2083 C655.76,146.5683 684.0933,174.3202 705.8733,195.6502" fill="none" id="CLI-to-InstallSoftware UseCase" style="stroke:#181818;stroke-width:1;"/><polygon fill="#181818" points="710.16,199.8483,706.5287,190.6933,706.5878,196.3498,700.9312,196.4089,710.16,199.8483" style="stroke:#181818;stroke-width:1;"/></g><!--link CLI to ConfigureNPMRC UseCase--><g class="link" data-entity-1="CLI" data-entity-2="ConfigureNPMRC UseCase" data-source-line="51" data-uid="lnk33" id="link_CLI_ConfigureNPMRC UseCase"><path d="M588.05,125.2083 C566.24,146.5683 537.9067,174.3202 516.1267,195.6502" fill="none" id="CLI-to-ConfigureNPMRC UseCase" style="stroke:#181818;stroke-width:1;"/><polygon fill="#181818" points="511.84,199.8483,521.0688,196.4089,515.4122,196.3498,515.4713,190.6933,511.84,199.8483" style="stroke:#181818;stroke-width:1;"/></g><!--link SetupRepositories UseCase to GitService--><g class="link" data-entity-1="SetupRepositories UseCase" data-entity-2="GitService" data-source-line="53" data-uid="lnk34" id="link_SetupRepositories UseCase_GitService"><path d="M252.02,246.7883 C271.83,271.6083 298.847,305.4589 311.977,321.9089" fill="none" id="SetupRepositories UseCase-to-GitService" style="stroke:#181818;stroke-width:1;"/><polygon fill="#181818" points="315.72,326.5983,313.2318,317.0689,312.6009,322.6905,306.9793,322.0595,315.72,326.5983" style="stroke:#181818;stroke-width:1;"/></g><!--link InstallSoftware UseCase to SoftwareService--><g class="link" data-entity-1="InstallSoftware UseCase" data-entity-2="SoftwareService" data-source-line="54" data-uid="lnk35" id="link_InstallSoftware UseCase_SoftwareService"><path d="M733,246.7883 C733,271.6083 733,304.1483 733,320.5983" fill="none" id="InstallSoftware UseCase-to-SoftwareService" style="stroke:#181818;stroke-width:1;"/><polygon fill="#181818" points="733,326.5983,737,317.5983,733,321.5983,729,317.5983,733,326.5983" style="stroke:#181818;stroke-width:1;"/></g><!--link ConfigureNPMRC UseCase to NPMRCService--><g class="link" data-entity-1="ConfigureNPMRC UseCase" data-entity-2="NPMRCService" data-source-line="55" data-uid="lnk36" id="link_ConfigureNPMRC UseCase_NPMRCService"><path d="M493.1,246.7883 C497.6,271.6083 503.5205,304.2444 506.5005,320.6944" fill="none" id="ConfigureNPMRC UseCase-to-NPMRCService" style="stroke:#181818;stroke-width:1;"/><polygon fill="#181818" points="507.57,326.5983,509.9017,317.0294,506.6787,321.6784,502.0298,318.4554,507.57,326.5983" style="stroke:#181818;stroke-width:1;"/></g><!--link SetupRepositories UseCase to ConfigService--><g class="link" data-entity-1="SetupRepositories UseCase" data-entity-2="ConfigService" data-source-line="56" data-uid="lnk37" id="link_SetupRepositories UseCase_ConfigService"><path d="M223.76,246.7883 C212.5,271.6083 197.5081,304.6839 190.0481,321.1339" fill="none" id="SetupRepositories UseCase-to-ConfigService" style="stroke:#181818;stroke-width:1;"/><polygon fill="#181818" points="187.57,326.5983,194.93,320.0538,189.6351,322.0446,187.6442,316.7497,187.57,326.5983" style="stroke:#181818;stroke-width:1;"/></g><!--reverse link GitService to GitPythonService--><g class="link" data-entity-1="GitService" data-entity-2="GitPythonService" data-source-line="58" data-uid="lnk38" id="link_GitService_GitPythonService"><path d="M325.281,362.1532 C327.661,380.7832 331.46,410.4783 335.1,439.0183" fill="none" id="GitService-backto-GitPythonService" style="stroke:#181818;stroke-width:1;"/><polygon fill="none" points="323,344.2983,319.3293,362.9135,331.2326,361.3928,323,344.2983" style="stroke:#181818;stroke-width:1;"/></g><!--reverse link SoftwareService to BrewSoftwareService--><g class="link" data-entity-1="SoftwareService" data-entity-2="BrewSoftwareService" data-source-line="59" data-uid="lnk39" id="link_SoftwareService_BrewSoftwareService"><path d="M733,362.2983 C733,380.9283 733,410.4783 733,439.0183" fill="none" id="SoftwareService-backto-BrewSoftwareService" style="stroke:#181818;stroke-width:1;"/><polygon fill="none" points="733,344.2983,727,362.2983,739,362.2983,733,344.2983" style="stroke:#181818;stroke-width:1;"/></g><!--reverse link NPMRCService to NPMRCFileService--><g class="link" data-entity-1="NPMRCService" data-entity-2="NPMRCFileService" data-source-line="60" data-uid="lnk40" id="link_NPMRCService_NPMRCFileService"><path d="M513.0931,362.0723 C516.0731,380.7023 520.82,410.4783 525.38,439.0183" fill="none" id="NPMRCService-backto-NPMRCFileService" style="stroke:#181818;stroke-width:1;"/><polygon fill="none" points="510.25,344.2983,507.1684,363.02,519.0178,361.1246,510.25,344.2983" style="stroke:#181818;stroke-width:1;"/></g><!--reverse link ConfigService to RepositoryConfigService--><g class="link" data-entity-1="ConfigService" data-entity-2="RepositoryConfigService" data-source-line="61" data-uid="lnk41" id="link_ConfigService_RepositoryConfigService"><path d="M172.4696,360.5299 C163.5396,379.1599 148.54,410.4783 134.87,439.0183" fill="none" id="ConfigService-backto-RepositoryConfigService" style="stroke:#181818;stroke-width:1;"/><polygon fill="none" points="180.25,344.2983,167.0591,357.9364,177.8802,363.1234,180.25,344.2983" style="stroke:#181818;stroke-width:1;"/></g><!--link GitPythonService to Git--><g class="link" data-entity-1="GitPythonService" data-entity-2="Git" data-source-line="63" data-uid="lnk42" id="link_GitPythonService_Git"><path d="M344.58,486.1783 C350.84,507.5383 358.5128,533.7304 364.7628,555.0604" fill="none" id="GitPythonService-to-Git" style="stroke:#181818;stroke-width:1;"/><polygon fill="#181818" points="366.45,560.8183,367.7579,551.0566,365.044,556.02,360.0807,553.3062,366.45,560.8183" style="stroke:#181818;stroke-width:1;"/></g><!--link GitPythonService to FileSystem--><g class="link" data-entity-1="GitPythonService" data-entity-2="FileSystem" data-source-line="64" data-uid="lnk43" id="link_GitPythonService_FileSystem"><path d="M374.71,486.3683 C389.15,495.6983 405.67,506.8983 420,517.9483 C437.23,531.2383 451.0904,543.4579 465.0304,556.4479" fill="none" id="GitPythonService-to-FileSystem" style="stroke:#181818;stroke-width:1;"/><polygon fill="#181818" points="469.42,560.5383,465.5626,551.4763,465.762,557.1296,460.1087,557.329,469.42,560.5383" style="stroke:#181818;stroke-width:1;"/></g><!--link BrewSoftwareService to Homebrew--><g class="link" data-entity-1="BrewSoftwareService" data-entity-2="Homebrew" data-source-line="65" data-uid="lnk44" id="link_BrewSoftwareService_Homebrew"><path d="M715.51,486.1783 C698.88,507.5383 677.7064,534.7543 661.0964,556.0843" fill="none" id="BrewSoftwareService-to-Homebrew" style="stroke:#181818;stroke-width:1;"/><polygon fill="#181818" points="657.41,560.8183,666.0956,556.1749,660.482,556.8733,659.7836,551.2597,657.41,560.8183" style="stroke:#181818;stroke-width:1;"/></g><!--link NPMRCFileService to FileSystem--><g class="link" data-entity-1="NPMRCFileService" data-entity-2="FileSystem" data-source-line="66" data-uid="lnk45" id="link_NPMRCFileService_FileSystem"><path d="M522.23,486.1783 C515.79,507.5383 507.9017,533.7436 501.4717,555.0736" fill="none" id="NPMRCFileService-to-FileSystem" style="stroke:#181818;stroke-width:1;"/><polygon fill="#181818" points="499.74,560.8183,506.1674,553.3558,501.1831,556.0311,498.5078,551.0468,499.74,560.8183" style="stroke:#181818;stroke-width:1;"/></g><!--link RepositoryConfigService to YAML Config--><g class="link" data-entity-1="RepositoryConfigService" data-entity-2="YAML Config" data-source-line="67" data-uid="lnk46" id="link_RepositoryConfigService_YAML Config"><path d="M146.76,486.1783 C168.39,507.5383 196.4708,535.2724 218.0708,556.6024" fill="none" id="RepositoryConfigService-to-YAML Config" style="stroke:#181818;stroke-width:1;"/><polygon fill="#181818" points="222.34,560.8183,218.7467,551.6483,218.7823,557.3051,213.1256,557.3406,222.34,560.8183" style="stroke:#181818;stroke-width:1;"/></g><!--link SetupRepositories UseCase to Repository Entity--><g class="link" data-entity-1="SetupRepositories UseCase" data-entity-2="Repository Entity" data-source-line="69" data-uid="lnk47" id="link_SetupRepositories UseCase_Repository Entity"><path d="M346.1,244.4083 C351.81,245.1683 357.46,245.8583 363,246.4583 C470.48,258.1983 745.03,239.5783 849,269.2183 C880.31,278.1483 907.3787,293.4886 929.9987,308.5786" fill="none" id="SetupRepositories UseCase-to-Repository Entity" style="stroke:#181818;stroke-width:1;stroke-dasharray:7,7;"/><polygon fill="#181818" points="934.99,311.9083,929.7229,303.5862,930.8306,309.1335,925.2833,310.2412,934.99,311.9083" style="stroke:#181818;stroke-width:1;"/></g><!--link InstallSoftware UseCase to Software Entity--><g class="link" data-entity-1="InstallSoftware UseCase" data-entity-2="Software Entity" data-source-line="70" data-uid="lnk48" id="link_InstallSoftware UseCase_Software Entity"><path d="M833.7,226.9883 C956.85,231.4883 1157.5,242.7083 1227,269.2183 C1251.7,278.6383 1271.0485,293.0676 1287.6685,307.9376" fill="none" id="InstallSoftware UseCase-to-Software Entity" style="stroke:#181818;stroke-width:1;stroke-dasharray:7,7;"/><polygon fill="#181818" points="1292.14,311.9383,1288.0998,302.9562,1288.4137,308.6044,1282.7656,308.9183,1292.14,311.9383" style="stroke:#181818;stroke-width:1;"/></g><!--link ConfigureNPMRC UseCase to NPMRC Entity--><g class="link" data-entity-1="ConfigureNPMRC UseCase" data-entity-2="NPMRC Entity" data-source-line="71" data-uid="lnk49" id="link_ConfigureNPMRC UseCase_NPMRC Entity"><path d="M597.81,244.2883 C603.61,245.0883 609.37,245.8283 615,246.4583 C713.61,257.6383 968.07,234.3883 1061,269.2183 C1085.03,278.2183 1103.2954,292.7085 1118.8154,307.7785" fill="none" id="ConfigureNPMRC UseCase-to-NPMRC Entity" style="stroke:#181818;stroke-width:1;stroke-dasharray:7,7;"/><polygon fill="#181818" points="1123.12,311.9583,1119.4496,302.8189,1119.5328,308.4751,1113.8766,308.5583,1123.12,311.9583" style="stroke:#181818;stroke-width:1;"/></g><!--SRC=[XLJ1Rjim3BthAuXUUdA_O2YGkkqQ85s3PXim33qeBjDeLIH3ajCPs_vz2cN7acgdW0tBVAJuI3x92ISHLkYQ6cxKNXYjTgWSh5hhS0S5b1AvWfcfji9XvHg3Z9t3pM-7Hd492zwYOJMlNlaBmbblFuC_3E3dDulcwR2u5HB3blHxftUuDlX6Fv-5wxztpPgMFsRt2oYrseYN9_Rla71fq7fUt0cjygGnrYKk5_CkS5RNKbHH7C0G6O5T87NY4MjjXTD6e0LVGyaj4g-vievBkT8RzyOD9bYWw_lpPNd_MCQGVuJoVTdm2i5NkKAp5nKcvdxBCOms70D2oXwXSg_rZejt7GhMhiHZTQsVk1Ek9Vh7cY9Rg2GoNEF-LijdD4lkjl2TomRXOVtBwuBWh_eLLMOcLdErCTmwqv20SdOfsh7qVLgsRgjLLnubkFAQoJer42MDHSQXpgHF7ILlKvwWdxnb1vb2KLo2bmtpBwrFIU7eCoc8eyUKBDY9_Iao4ifa6dBCfJELafmJBNr48TKN6nZ1fxz50Vc8MCOaU8tCZCKiWbS-GPRa3ZuJ0oLY2P6-V-F0S1Un4MxaqjzFBAULRp11AOm-kSLEDllYudBqN4uFdYBUdTd9qPDxUfp_0m00]--></g></svg>