<svg xmlns="http://www.w3.org/2000/svg" xmlns:xlink="http://www.w3.org/1999/xlink" contentStyleType="text/css" data-diagram-type="DESCRIPTION" height="846px" preserveAspectRatio="none" style="width:2273px;height:846px;background:#FFFFFF;" version="1.1" viewBox="0 0 2273 846" width="2273px" zoomAndPan="magnify"><title>CLEAN ARCHITECTURE</title><defs/><g><g class="title" data-source-line="2"><text fill="#000000" font-family="sans-serif" font-size="14" font-weight="bold" lengthAdjust="spacing" textLength="163.7891" x="1047.744" y="23.5352">CLEAN ARCHITECTURE</text><text fill="#000000" font-family="sans-serif" font-size="14" font-weight="bold" lengthAdjust="spacing" textLength="192.7119" x="1033.2826" y="40.0234">Setup Environment System</text></g><!--cluster Infrastructure--><g class="cluster" data-entity="Infrastructure" data-source-line="14" data-uid="ent0002" id="cluster_Infrastructure"><rect fill="#2E5984" height="113.49" rx="2.5" ry="2.5" style="stroke:#000000;stroke-width:1;" width="1351" x="7" y="517.7066"/><text fill="#000000" font-family="sans-serif" font-size="14" font-weight="bold" lengthAdjust="spacing" textLength="100.2695" x="632.3652" y="533.2417">Infrastructure</text></g><!--cluster Application Layer--><g class="cluster" data-entity="Application Layer" data-source-line="25" data-uid="ent0010" id="cluster_Application Layer"><rect fill="#5B9BD5" height="391.73" rx="2.5" ry="2.5" style="stroke:#000000;stroke-width:1;" width="816" x="268" y="60.9766"/><text fill="#000000" font-family="sans-serif" font-size="14" font-weight="bold" lengthAdjust="spacing" textLength="125.7266" x="613.1367" y="76.5117">Application Layer</text></g><!--cluster Use Cases--><g class="cluster" data-entity="Use Cases" data-source-line="26" data-uid="ent0011" id="cluster_Use Cases"><rect fill="#4A90D9" height="97.49" rx="2.5" ry="2.5" style="stroke:#000000;stroke-width:1;" width="744" x="300" y="111.9766"/><text fill="#000000" font-family="sans-serif" font-size="14" font-weight="bold" lengthAdjust="spacing" textLength="73.2813" x="635.3594" y="127.5117">Use Cases</text></g><!--cluster Interfaces (Ports)--><g class="cluster" data-entity="Interfaces .Ports." data-source-line="31" data-uid="ent0015" id="cluster_Interfaces .Ports."><rect fill="#6BA6E3" height="109" rx="2.5" ry="2.5" style="stroke:#000000;stroke-width:1;" width="559" x="300" y="311.7066"/><text fill="#000000" font-family="sans-serif" font-size="14" font-weight="bold" lengthAdjust="spacing" textLength="124.1543" x="517.4229" y="327.2417">Interfaces (Ports)</text></g><!--cluster Domain Layer--><g class="cluster" data-entity="Domain Layer" data-source-line="40" data-uid="ent0020" id="cluster_Domain Layer"><rect fill="#9BC2E6" height="388.73" rx="2.5" ry="2.5" style="stroke:#000000;stroke-width:1;" width="644" x="1398" y="266.4666"/><text fill="#000000" font-family="sans-serif" font-size="14" font-weight="bold" lengthAdjust="spacing" textLength="99.3125" x="1670.3438" y="282.0017">Domain Layer</text></g><!--cluster Entities--><g class="cluster" data-entity="Entities" data-source-line="41" data-uid="ent0021" id="cluster_Entities"><rect fill="#B8D4F0" height="97.49" rx="2.5" ry="2.5" style="stroke:#000000;stroke-width:1;" width="494" x="1430" y="317.4666"/><text fill="#000000" font-family="sans-serif" font-size="14" font-weight="bold" lengthAdjust="spacing" textLength="54.1748" x="1649.9126" y="333.0017">Entities</text></g><!--cluster Value Objects--><g class="cluster" data-entity="Value Objects" data-source-line="46" data-uid="ent0025" id="cluster_Value Objects"><rect fill="#B8D4F0" height="97.49" rx="2.5" ry="2.5" style="stroke:#000000;stroke-width:1;" width="572" x="1430" y="525.7066"/><text fill="#000000" font-family="sans-serif" font-size="14" font-weight="bold" lengthAdjust="spacing" textLength="99.2852" x="1666.3574" y="541.2417">Value Objects</text></g><!--cluster External Systems--><g class="cluster" data-entity="External Systems" data-source-line="54" data-uid="ent0029" id="cluster_External Systems"><path d="M206.8616,708.2237 C230.2379,672.8976 258.2335,673.0882 282.0125,707.7914 C301.9504,682.7381 323.8631,675.0335 343.3868,708.2277 C366.2593,675.6813 399.3288,674.8159 419.3312,711.3816 C435.1306,674.5191 468.6115,678.927 489.2471,706.1015 C506.8419,673.1205 536.4797,673.7588 555.8826,704.2018 C574.8203,664.3306 608.1875,674.4361 627.9758,703.3097 C645.8141,678.6586 676.0738,674.1898 690.0318,707.4665 C714.7903,673.3426 736.2817,678.2536 761.1518,707.341 C781.1127,670.5004 815.7801,676.237 831.3688,711.5932 C852.2058,670.7019 874.7411,674.2501 902.0165,705.2677 C928.673,676.2858 957.6864,669.5788 977.8801,712.1224 C993.0391,683.708 1018.6928,680.879 1040.6264,703.8501 C1063.0905,677.2983 1082.4223,675.6342 1104.8252,703.9217 C1129.107,675.4519 1153.7796,674.4689 1176.611,705.6666 C1189.7224,708.9647 1192.5167,719.0528 1182.9174,728.5968 C1192.3002,732.4049 1193.2326,738.2238 1187.1113,745.8095 C1195.1767,756.2843 1193.5062,763.8671 1180.3335,767.7944 C1191.6206,771.8703 1191.9086,782.0798 1184.2638,789.5724 C1159.8599,831.2403 1129.3354,828.0693 1107.0095,787.6175 C1094.4381,820.0249 1069.1104,830.1686 1044.0318,800.2567 C1015.6762,835.627 992.574,831.7342 966.6698,797.5309 C952.673,827.9862 921.7892,829.9123 904.0719,801.4862 C881.6852,839.6534 845.0425,833.4327 829.591,794.7636 C813.7351,831.8189 788.3946,833.9799 761.5843,806.2655 C735.0514,838.6691 706.9583,837.5498 690.5309,796.4913 C669.2208,833.459 646.1123,828.8373 620.9509,800.6011 C595.753,828.3096 573.4932,827.3985 555.9504,792.6359 C540.3063,825.3777 515.848,827.9757 491.4744,802.265 C461.1707,830.9734 436.5184,825.9851 416.97,789.8981 C397.9549,821.0103 361.515,829.2668 342.4564,789.9439 C323.9181,823.6711 291.0153,819.0389 272.4755,789.9455 C253.9762,818.5836 220.1287,822.8277 204.9712,786.4745 C192.6828,783.9939 191.4224,773.9776 199.173,765.8605 C189.1261,762.4237 187.1058,753.6448 195.4352,746.6352 C187.25,737.926 189.0452,731.6287 199.3728,726.5485 C191.9659,716.6354 195.3724,710.4144 206.8616,708.2237" fill="#FFFFFF" style="stroke:#000000;stroke-width:1;"/><text fill="#000000" font-family="sans-serif" font-size="14" font-weight="bold" lengthAdjust="spacing" textLength="122.958" x="627.021" y="722.7317">External Systems</text></g><!--entity CLI Interface--><g class="entity" data-entity="CLI Interface" data-source-line="15" data-uid="ent0003" id="entity_CLI Interface"><rect fill="#F1F1F1" height="46.4883" rx="2.5" ry="2.5" style="stroke:#181818;stroke-width:0.5;" width="124.9502" x="1035.52" y="560.7066"/><rect fill="#F1F1F1" height="10" style="stroke:#181818;stroke-width:0.5;" width="15" x="1140.4702" y="565.7066"/><rect fill="#F1F1F1" height="2" style="stroke:#181818;stroke-width:0.5;" width="4" x="1138.4702" y="567.7066"/><rect fill="#F1F1F1" height="2" style="stroke:#181818;stroke-width:0.5;" width="4" x="1138.4702" y="571.7066"/><text fill="#000000" font-family="sans-serif" font-size="14" lengthAdjust="spacing" textLength="84.9502" x="1050.52" y="594.2417">CLI Interface</text></g><!--entity GitPythonService--><g class="entity" data-entity="GitPythonService" data-source-line="16" data-uid="ent0004" id="entity_GitPythonService"><rect fill="#F1F1F1" height="46.4883" rx="2.5" ry="2.5" style="stroke:#181818;stroke-width:0.5;" width="152.998" x="270.5" y="560.7066"/><rect fill="#F1F1F1" height="10" style="stroke:#181818;stroke-width:0.5;" width="15" x="403.498" y="565.7066"/><rect fill="#F1F1F1" height="2" style="stroke:#181818;stroke-width:0.5;" width="4" x="401.498" y="567.7066"/><rect fill="#F1F1F1" height="2" style="stroke:#181818;stroke-width:0.5;" width="4" x="401.498" y="571.7066"/><text fill="#000000" font-family="sans-serif" font-size="14" lengthAdjust="spacing" textLength="112.998" x="285.5" y="594.2417">GitPythonService</text></g><!--entity BrewSoftwareService--><g class="entity" data-entity="BrewSoftwareService" data-source-line="17" data-uid="ent0005" id="entity_BrewSoftwareService"><rect fill="#F1F1F1" height="46.4883" rx="2.5" ry="2.5" style="stroke:#181818;stroke-width:0.5;" width="178.2705" x="458.86" y="560.7066"/><rect fill="#F1F1F1" height="10" style="stroke:#181818;stroke-width:0.5;" width="15" x="617.1305" y="565.7066"/><rect fill="#F1F1F1" height="2" style="stroke:#181818;stroke-width:0.5;" width="4" x="615.1305" y="567.7066"/><rect fill="#F1F1F1" height="2" style="stroke:#181818;stroke-width:0.5;" width="4" x="615.1305" y="571.7066"/><text fill="#000000" font-family="sans-serif" font-size="14" lengthAdjust="spacing" textLength="138.2705" x="473.86" y="594.2417">BrewSoftwareService</text></g><!--entity NPMRCFileService--><g class="entity" data-entity="NPMRCFileService" data-source-line="18" data-uid="ent0006" id="entity_NPMRCFileService"><rect fill="#F1F1F1" height="46.4883" rx="2.5" ry="2.5" style="stroke:#181818;stroke-width:0.5;" width="159.4102" x="672.29" y="560.7066"/><rect fill="#F1F1F1" height="10" style="stroke:#181818;stroke-width:0.5;" width="15" x="811.7002" y="565.7066"/><rect fill="#F1F1F1" height="2" style="stroke:#181818;stroke-width:0.5;" width="4" x="809.7002" y="567.7066"/><rect fill="#F1F1F1" height="2" style="stroke:#181818;stroke-width:0.5;" width="4" x="809.7002" y="571.7066"/><text fill="#000000" font-family="sans-serif" font-size="14" lengthAdjust="spacing" textLength="119.4102" x="687.29" y="594.2417">NPMRCFileService</text></g><!--entity RepositoryConfigService--><g class="entity" data-entity="RepositoryConfigService" data-source-line="19" data-uid="ent0007" id="entity_RepositoryConfigService"><rect fill="#F1F1F1" height="46.4883" rx="2.5" ry="2.5" style="stroke:#181818;stroke-width:0.5;" width="204.3564" x="30.82" y="560.7066"/><rect fill="#F1F1F1" height="10" style="stroke:#181818;stroke-width:0.5;" width="15" x="215.1764" y="565.7066"/><rect fill="#F1F1F1" height="2" style="stroke:#181818;stroke-width:0.5;" width="4" x="213.1764" y="567.7066"/><rect fill="#F1F1F1" height="2" style="stroke:#181818;stroke-width:0.5;" width="4" x="213.1764" y="571.7066"/><text fill="#000000" font-family="sans-serif" font-size="14" lengthAdjust="spacing" textLength="164.3564" x="45.82" y="594.2417">RepositoryConfigService</text></g><!--entity PythonService--><g class="entity" data-entity="PythonService" data-source-line="20" data-uid="ent0008" id="entity_PythonService"><rect fill="#F1F1F1" height="46.4883" rx="2.5" ry="2.5" style="stroke:#181818;stroke-width:0.5;" width="133.5977" x="867.2" y="560.7066"/><rect fill="#F1F1F1" height="10" style="stroke:#181818;stroke-width:0.5;" width="15" x="980.7977" y="565.7066"/><rect fill="#F1F1F1" height="2" style="stroke:#181818;stroke-width:0.5;" width="4" x="978.7977" y="567.7066"/><rect fill="#F1F1F1" height="2" style="stroke:#181818;stroke-width:0.5;" width="4" x="978.7977" y="571.7066"/><text fill="#000000" font-family="sans-serif" font-size="14" lengthAdjust="spacing" textLength="93.5977" x="882.2" y="594.2417">PythonService</text></g><!--entity NVMService--><g class="entity" data-entity="NVMService" data-source-line="21" data-uid="ent0009" id="entity_NVMService"><rect fill="#F1F1F1" height="46.4883" rx="2.5" ry="2.5" style="stroke:#181818;stroke-width:0.5;" width="118.8867" x="1195.56" y="560.7066"/><rect fill="#F1F1F1" height="10" style="stroke:#181818;stroke-width:0.5;" width="15" x="1294.4467" y="565.7066"/><rect fill="#F1F1F1" height="2" style="stroke:#181818;stroke-width:0.5;" width="4" x="1292.4467" y="567.7066"/><rect fill="#F1F1F1" height="2" style="stroke:#181818;stroke-width:0.5;" width="4" x="1292.4467" y="571.7066"/><text fill="#000000" font-family="sans-serif" font-size="14" lengthAdjust="spacing" textLength="78.8867" x="1210.56" y="594.2417">NVMService</text></g><!--entity SetupRepositories UseCase--><g class="entity" data-entity="SetupRepositories UseCase" data-source-line="27" data-uid="ent0012" id="entity_SetupRepositories UseCase"><rect fill="#F1F1F1" height="46.4883" rx="2.5" ry="2.5" style="stroke:#181818;stroke-width:0.5;" width="223.292" x="316.35" y="146.9766"/><rect fill="#F1F1F1" height="10" style="stroke:#181818;stroke-width:0.5;" width="15" x="519.642" y="151.9766"/><rect fill="#F1F1F1" height="2" style="stroke:#181818;stroke-width:0.5;" width="4" x="517.642" y="153.9766"/><rect fill="#F1F1F1" height="2" style="stroke:#181818;stroke-width:0.5;" width="4" x="517.642" y="157.9766"/><text fill="#000000" font-family="sans-serif" font-size="14" lengthAdjust="spacing" textLength="183.292" x="331.35" y="180.5117">SetupRepositories UseCase</text></g><!--entity InstallSoftware UseCase--><g class="entity" data-entity="InstallSoftware UseCase" data-source-line="28" data-uid="ent0013" id="entity_InstallSoftware UseCase"><rect fill="#F1F1F1" height="46.4883" rx="2.5" ry="2.5" style="stroke:#181818;stroke-width:0.5;" width="200.9111" x="574.54" y="146.9766"/><rect fill="#F1F1F1" height="10" style="stroke:#181818;stroke-width:0.5;" width="15" x="755.4511" y="151.9766"/><rect fill="#F1F1F1" height="2" style="stroke:#181818;stroke-width:0.5;" width="4" x="753.4511" y="153.9766"/><rect fill="#F1F1F1" height="2" style="stroke:#181818;stroke-width:0.5;" width="4" x="753.4511" y="157.9766"/><text fill="#000000" font-family="sans-serif" font-size="14" lengthAdjust="spacing" textLength="160.9111" x="589.54" y="180.5117">InstallSoftware UseCase</text></g><!--entity ConfigureNPMRC UseCase--><g class="entity" data-entity="ConfigureNPMRC UseCase" data-source-line="29" data-uid="ent0014" id="entity_ConfigureNPMRC UseCase"><rect fill="#F1F1F1" height="46.4883" rx="2.5" ry="2.5" style="stroke:#181818;stroke-width:0.5;" width="217.2148" x="810.39" y="146.9766"/><rect fill="#F1F1F1" height="10" style="stroke:#181818;stroke-width:0.5;" width="15" x="1007.6048" y="151.9766"/><rect fill="#F1F1F1" height="2" style="stroke:#181818;stroke-width:0.5;" width="4" x="1005.6048" y="153.9766"/><rect fill="#F1F1F1" height="2" style="stroke:#181818;stroke-width:0.5;" width="4" x="1005.6048" y="157.9766"/><text fill="#000000" font-family="sans-serif" font-size="14" lengthAdjust="spacing" textLength="177.2148" x="825.39" y="180.5117">ConfigureNPMRC UseCase</text></g><!--entity GitService--><g class="entity" data-entity="GitService" data-source-line="32" data-uid="ent0016" id="entity_GitService"><ellipse cx="500" cy="375.7066" fill="#F1F1F1" rx="8" ry="8" style="stroke:#181818;stroke-width:0.5;"/><text fill="#000000" font-family="sans-serif" font-size="14" lengthAdjust="spacing" textLength="66.7324" x="466.6338" y="406.2417">GitService</text></g><!--entity SoftwareService--><g class="entity" data-entity="SoftwareService" data-source-line="33" data-uid="ent0017" id="entity_SoftwareService"><ellipse cx="636" cy="375.7066" fill="#F1F1F1" rx="8" ry="8" style="stroke:#181818;stroke-width:0.5;"/><text fill="#000000" font-family="sans-serif" font-size="14" lengthAdjust="spacing" textLength="105.9023" x="583.0488" y="406.2417">SoftwareService</text></g><!--entity NPMRCService--><g class="entity" data-entity="NPMRCService" data-source-line="34" data-uid="ent0018" id="entity_NPMRCService"><ellipse cx="787" cy="375.7066" fill="#F1F1F1" rx="8" ry="8" style="stroke:#181818;stroke-width:0.5;"/><text fill="#000000" font-family="sans-serif" font-size="14" lengthAdjust="spacing" textLength="96.0107" x="738.9946" y="406.2417">NPMRCService</text></g><!--entity ConfigService--><g class="entity" data-entity="ConfigService" data-source-line="35" data-uid="ent0019" id="entity_ConfigService"><ellipse cx="370" cy="375.7066" fill="#F1F1F1" rx="8" ry="8" style="stroke:#181818;stroke-width:0.5;"/><text fill="#000000" font-family="sans-serif" font-size="14" lengthAdjust="spacing" textLength="92.2305" x="323.8848" y="406.2417">ConfigService</text></g><!--entity Repository--><g class="entity" data-entity="Repository" data-source-line="42" data-uid="ent0022" id="entity_Repository"><rect fill="#F1F1F1" height="46.4883" rx="2.5" ry="2.5" style="stroke:#181818;stroke-width:0.5;" width="112.126" x="1445.94" y="352.4666"/><rect fill="#F1F1F1" height="10" style="stroke:#181818;stroke-width:0.5;" width="15" x="1538.066" y="357.4666"/><rect fill="#F1F1F1" height="2" style="stroke:#181818;stroke-width:0.5;" width="4" x="1536.066" y="359.4666"/><rect fill="#F1F1F1" height="2" style="stroke:#181818;stroke-width:0.5;" width="4" x="1536.066" y="363.4666"/><text fill="#000000" font-family="sans-serif" font-size="14" lengthAdjust="spacing" textLength="72.126" x="1460.94" y="386.0017">Repository</text></g><!--entity Software--><g class="entity" data-entity="Software" data-source-line="43" data-uid="ent0023" id="entity_Software"><rect fill="#F1F1F1" height="46.4883" rx="2.5" ry="2.5" style="stroke:#181818;stroke-width:0.5;" width="98.5703" x="1592.71" y="352.4666"/><rect fill="#F1F1F1" height="10" style="stroke:#181818;stroke-width:0.5;" width="15" x="1671.2803" y="357.4666"/><rect fill="#F1F1F1" height="2" style="stroke:#181818;stroke-width:0.5;" width="4" x="1669.2803" y="359.4666"/><rect fill="#F1F1F1" height="2" style="stroke:#181818;stroke-width:0.5;" width="4" x="1669.2803" y="363.4666"/><text fill="#000000" font-family="sans-serif" font-size="14" lengthAdjust="spacing" textLength="58.5703" x="1607.71" y="386.0017">Software</text></g><!--entity NPMRCConfiguration--><g class="entity" data-entity="NPMRCConfiguration" data-source-line="44" data-uid="ent0024" id="entity_NPMRCConfiguration"><rect fill="#F1F1F1" height="46.4883" rx="2.5" ry="2.5" style="stroke:#181818;stroke-width:0.5;" width="182.2969" x="1725.85" y="352.4666"/><rect fill="#F1F1F1" height="10" style="stroke:#181818;stroke-width:0.5;" width="15" x="1888.1469" y="357.4666"/><rect fill="#F1F1F1" height="2" style="stroke:#181818;stroke-width:0.5;" width="4" x="1886.1469" y="359.4666"/><rect fill="#F1F1F1" height="2" style="stroke:#181818;stroke-width:0.5;" width="4" x="1886.1469" y="363.4666"/><text fill="#000000" font-family="sans-serif" font-size="14" lengthAdjust="spacing" textLength="142.2969" x="1740.85" y="386.0017">NPMRCConfiguration</text></g><!--entity DevFolderPath--><g class="entity" data-entity="DevFolderPath" data-source-line="47" data-uid="ent0026" id="entity_DevFolderPath"><rect fill="#F1F1F1" height="46.4883" rx="2.5" ry="2.5" style="stroke:#181818;stroke-width:0.5;" width="137.4189" x="1446.29" y="560.7066"/><rect fill="#F1F1F1" height="10" style="stroke:#181818;stroke-width:0.5;" width="15" x="1563.7089" y="565.7066"/><rect fill="#F1F1F1" height="2" style="stroke:#181818;stroke-width:0.5;" width="4" x="1561.7089" y="567.7066"/><rect fill="#F1F1F1" height="2" style="stroke:#181818;stroke-width:0.5;" width="4" x="1561.7089" y="571.7066"/><text fill="#000000" font-family="sans-serif" font-size="14" lengthAdjust="spacing" textLength="97.4189" x="1461.29" y="594.2417">DevFolderPath</text></g><!--entity PersonalAccessToken--><g class="entity" data-entity="PersonalAccessToken" data-source-line="48" data-uid="ent0027" id="entity_PersonalAccessToken"><rect fill="#F1F1F1" height="46.4883" rx="2.5" ry="2.5" style="stroke:#181818;stroke-width:0.5;" width="185.667" x="1619.17" y="560.7066"/><rect fill="#F1F1F1" height="10" style="stroke:#181818;stroke-width:0.5;" width="15" x="1784.837" y="565.7066"/><rect fill="#F1F1F1" height="2" style="stroke:#181818;stroke-width:0.5;" width="4" x="1782.837" y="567.7066"/><rect fill="#F1F1F1" height="2" style="stroke:#181818;stroke-width:0.5;" width="4" x="1782.837" y="571.7066"/><text fill="#000000" font-family="sans-serif" font-size="14" lengthAdjust="spacing" textLength="145.667" x="1634.17" y="594.2417">PersonalAccessToken</text></g><!--entity InstallResponse--><g class="entity" data-entity="InstallResponse" data-source-line="49" data-uid="ent0028" id="entity_InstallResponse"><rect fill="#F1F1F1" height="46.4883" rx="2.5" ry="2.5" style="stroke:#181818;stroke-width:0.5;" width="145.7451" x="1840.13" y="560.7066"/><rect fill="#F1F1F1" height="10" style="stroke:#181818;stroke-width:0.5;" width="15" x="1965.8751" y="565.7066"/><rect fill="#F1F1F1" height="2" style="stroke:#181818;stroke-width:0.5;" width="4" x="1963.8751" y="567.7066"/><rect fill="#F1F1F1" height="2" style="stroke:#181818;stroke-width:0.5;" width="4" x="1963.8751" y="571.7066"/><text fill="#000000" font-family="sans-serif" font-size="14" lengthAdjust="spacing" textLength="105.7451" x="1855.13" y="594.2417">InstallResponse</text></g><!--entity User--><g class="entity" data-entity="User" data-source-line="55" data-uid="ent0030" id="entity_User"><rect fill="#F1F1F1" height="46.4883" rx="2.5" ry="2.5" style="stroke:#181818;stroke-width:0.5;" width="70.3652" x="950.82" y="731.1966"/><rect fill="#F1F1F1" height="10" style="stroke:#181818;stroke-width:0.5;" width="15" x="1001.1852" y="736.1966"/><rect fill="#F1F1F1" height="2" style="stroke:#181818;stroke-width:0.5;" width="4" x="999.1852" y="738.1966"/><rect fill="#F1F1F1" height="2" style="stroke:#181818;stroke-width:0.5;" width="4" x="999.1852" y="742.1966"/><text fill="#000000" font-family="sans-serif" font-size="14" lengthAdjust="spacing" textLength="30.3652" x="965.82" y="764.7317">User</text></g><!--entity File System--><g class="entity" data-entity="File System" data-source-line="56" data-uid="ent0031" id="entity_File System"><rect fill="#F1F1F1" height="46.4883" rx="2.5" ry="2.5" style="stroke:#181818;stroke-width:0.5;" width="115.9268" x="652.04" y="731.1966"/><rect fill="#F1F1F1" height="10" style="stroke:#181818;stroke-width:0.5;" width="15" x="747.9668" y="736.1966"/><rect fill="#F1F1F1" height="2" style="stroke:#181818;stroke-width:0.5;" width="4" x="745.9668" y="738.1966"/><rect fill="#F1F1F1" height="2" style="stroke:#181818;stroke-width:0.5;" width="4" x="745.9668" y="742.1966"/><text fill="#000000" font-family="sans-serif" font-size="14" lengthAdjust="spacing" textLength="75.9268" x="667.04" y="764.7317">File System</text></g><!--entity Homebrew CLI--><g class="entity" data-entity="Homebrew CLI" data-source-line="57" data-uid="ent0032" id="entity_Homebrew CLI"><rect fill="#F1F1F1" height="46.4883" rx="2.5" ry="2.5" style="stroke:#181818;stroke-width:0.5;" width="138.499" x="478.75" y="731.1966"/><rect fill="#F1F1F1" height="10" style="stroke:#181818;stroke-width:0.5;" width="15" x="597.249" y="736.1966"/><rect fill="#F1F1F1" height="2" style="stroke:#181818;stroke-width:0.5;" width="4" x="595.249" y="738.1966"/><rect fill="#F1F1F1" height="2" style="stroke:#181818;stroke-width:0.5;" width="4" x="595.249" y="742.1966"/><text fill="#000000" font-family="sans-serif" font-size="14" lengthAdjust="spacing" textLength="98.499" x="493.75" y="764.7317">Homebrew CLI</text></g><!--entity Git CLI--><g class="entity" data-entity="Git CLI" data-source-line="58" data-uid="ent0033" id="entity_Git CLI"><rect fill="#F1F1F1" height="46.4883" rx="2.5" ry="2.5" style="stroke:#181818;stroke-width:0.5;" width="85.0146" x="358.49" y="731.1966"/><rect fill="#F1F1F1" height="10" style="stroke:#181818;stroke-width:0.5;" width="15" x="423.5046" y="736.1966"/><rect fill="#F1F1F1" height="2" style="stroke:#181818;stroke-width:0.5;" width="4" x="421.5046" y="738.1966"/><rect fill="#F1F1F1" height="2" style="stroke:#181818;stroke-width:0.5;" width="4" x="421.5046" y="742.1966"/><text fill="#000000" font-family="sans-serif" font-size="14" lengthAdjust="spacing" textLength="45.0146" x="373.49" y="764.7317">Git CLI</text></g><!--entity GitHub API--><g class="entity" data-entity="GitHub API" data-source-line="59" data-uid="ent0034" id="entity_GitHub API"><rect fill="#F1F1F1" height="46.4883" rx="2.5" ry="2.5" style="stroke:#181818;stroke-width:0.5;" width="113.0488" x="802.48" y="731.1966"/><rect fill="#F1F1F1" height="10" style="stroke:#181818;stroke-width:0.5;" width="15" x="895.5288" y="736.1966"/><rect fill="#F1F1F1" height="2" style="stroke:#181818;stroke-width:0.5;" width="4" x="893.5288" y="738.1966"/><rect fill="#F1F1F1" height="2" style="stroke:#181818;stroke-width:0.5;" width="4" x="893.5288" y="742.1966"/><text fill="#000000" font-family="sans-serif" font-size="14" lengthAdjust="spacing" textLength="73.0488" x="817.48" y="764.7317">GitHub API</text></g><!--entity YAML Files--><g class="entity" data-entity="YAML Files" data-source-line="60" data-uid="ent0035" id="entity_YAML Files"><rect fill="#F1F1F1" height="46.4883" rx="2.5" ry="2.5" style="stroke:#181818;stroke-width:0.5;" width="112.8711" x="210.56" y="731.1966"/><rect fill="#F1F1F1" height="10" style="stroke:#181818;stroke-width:0.5;" width="15" x="303.4311" y="736.1966"/><rect fill="#F1F1F1" height="2" style="stroke:#181818;stroke-width:0.5;" width="4" x="301.4311" y="738.1966"/><rect fill="#F1F1F1" height="2" style="stroke:#181818;stroke-width:0.5;" width="4" x="301.4311" y="742.1966"/><text fill="#000000" font-family="sans-serif" font-size="14" lengthAdjust="spacing" textLength="72.8711" x="225.56" y="764.7317">YAML Files</text></g><!--entity SSH Agent--><g class="entity" data-entity="SSH Agent" data-source-line="61" data-uid="ent0036" id="entity_SSH Agent"><rect fill="#F1F1F1" height="46.4883" rx="2.5" ry="2.5" style="stroke:#181818;stroke-width:0.5;" width="109.9111" x="1056.04" y="731.1966"/><rect fill="#F1F1F1" height="10" style="stroke:#181818;stroke-width:0.5;" width="15" x="1145.9511" y="736.1966"/><rect fill="#F1F1F1" height="2" style="stroke:#181818;stroke-width:0.5;" width="4" x="1143.9511" y="738.1966"/><rect fill="#F1F1F1" height="2" style="stroke:#181818;stroke-width:0.5;" width="4" x="1143.9511" y="742.1966"/><text fill="#000000" font-family="sans-serif" font-size="14" lengthAdjust="spacing" textLength="69.9111" x="1071.04" y="764.7317">SSH Agent</text></g><g class="entity" data-entity="GMN60" data-source-line="96" data-uid="ent0061" id="entity_GMN60"><path d="M2069.72,332.4366 L2069.72,418.9893 L2266.2771,418.9893 L2266.2771,342.4366 L2256.2771,332.4366 L2069.72,332.4366" fill="#FEFFDD" style="stroke:#181818;stroke-width:0.5;"/><path d="M2256.2771,332.4366 L2256.2771,342.4366 L2266.2771,342.4366 L2256.2771,332.4366" fill="#FEFFDD" style="stroke:#181818;stroke-width:1;"/><text fill="#000000" font-family="sans-serif" font-size="13" font-weight="bold" lengthAdjust="spacing" textLength="134.4053" x="2075.72" y="350.0049">Core Business Logic</text><text fill="#000000" font-family="sans-serif" font-size="13" lengthAdjust="spacing" textLength="164.3662" x="2075.72" y="365.3155">&#8226; Framework Independent</text><text fill="#000000" font-family="sans-serif" font-size="13" lengthAdjust="spacing" textLength="175.5571" x="2075.72" y="380.626">&#8226; No external dependencies</text><text fill="#000000" font-family="sans-serif" font-size="13" lengthAdjust="spacing" textLength="161.3828" x="2075.72" y="395.9366">&#8226; Contains business rules</text><text fill="#000000" font-family="sans-serif" font-size="13" lengthAdjust="spacing" textLength="105.5044" x="2075.72" y="411.2471">&#8226; Highly testable</text></g><g class="entity" data-entity="GMN63" data-source-line="104" data-uid="ent0064" id="entity_GMN63"><path d="M2065.94,533.0266 L2065.94,634.8898 L2254.0674,634.8898 L2254.0674,543.0266 L2244.0674,533.0266 L2065.94,533.0266" fill="#FEFFDD" style="stroke:#181818;stroke-width:0.5;"/><path d="M2244.0674,533.0266 L2244.0674,543.0266 L2254.0674,543.0266 L2244.0674,533.0266" fill="#FEFFDD" style="stroke:#181818;stroke-width:1;"/><text fill="#000000" font-family="sans-serif" font-size="13" font-weight="bold" lengthAdjust="spacing" textLength="121.4116" x="2071.94" y="550.5949">External Concerns</text><text fill="#000000" font-family="sans-serif" font-size="13" lengthAdjust="spacing" textLength="167.1274" x="2071.94" y="565.9055">&#8226; Framework specific code</text><text fill="#000000" font-family="sans-serif" font-size="13" lengthAdjust="spacing" textLength="103.3843" x="2071.94" y="581.216">&#8226; I/O operations</text><text fill="#000000" font-family="sans-serif" font-size="13" lengthAdjust="spacing" textLength="118.9551" x="2071.94" y="596.5266">&#8226; External API calls</text><text fill="#000000" font-family="sans-serif" font-size="13" lengthAdjust="spacing" textLength="114.6958" x="2071.94" y="611.8371">&#8226; Database access</text><text fill="#000000" font-family="sans-serif" font-size="13" lengthAdjust="spacing" textLength="152.8516" x="2071.94" y="627.1477">&#8226; File system operations</text></g><g class="entity" data-entity="GMN66" data-source-line="113" data-uid="ent0067" id="entity_GMN66"><path d="M1120.31,332.4366 L1120.31,418.9893 L1373.6977,418.9893 L1373.6977,342.4366 L1363.6977,332.4366 L1120.31,332.4366" fill="#FEFFDD" style="stroke:#181818;stroke-width:0.5;"/><path d="M1363.6977,332.4366 L1363.6977,342.4366 L1373.6977,342.4366 L1363.6977,332.4366" fill="#FEFFDD" style="stroke:#181818;stroke-width:1;"/><text fill="#000000" font-family="sans-serif" font-size="13" font-weight="bold" lengthAdjust="spacing" textLength="180.5845" x="1126.31" y="350.0049">Application Business Rules</text><text fill="#000000" font-family="sans-serif" font-size="13" lengthAdjust="spacing" textLength="154.1465" x="1126.31" y="365.3155">&#8226; Use case orchestration</text><text fill="#000000" font-family="sans-serif" font-size="13" lengthAdjust="spacing" textLength="182.2476" x="1126.31" y="380.626">&#8226; Interface definitions (Ports)</text><text fill="#000000" font-family="sans-serif" font-size="13" lengthAdjust="spacing" textLength="232.3877" x="1126.31" y="395.9366">&#8226; Application-specific business rules</text><text fill="#000000" font-family="sans-serif" font-size="13" lengthAdjust="spacing" textLength="188.6523" x="1126.31" y="411.2471">&#8226; Coordinates domain objects</text></g><!--link User to CLI Interface--><g class="link" data-entity-1="User" data-entity-2="CLI Interface" data-source-line="65" data-uid="lnk37" id="link_User_CLI Interface"><path d="M1001.04,730.8066 C1022.45,698.6166 1058.1382,644.9232 1079.5782,612.6732" fill="none" id="User-to-CLI Interface" style="stroke:#181818;stroke-width:1;"/><polygon fill="#181818" points="1082.9,607.6766,1074.5863,612.9569,1080.1319,611.8404,1081.2484,617.386,1082.9,607.6766" style="stroke:#181818;stroke-width:1;"/></g><!--link CLI Interface to SetupRepositories UseCase--><g class="link" data-entity-1="CLI Interface" data-entity-2="SetupRepositories UseCase" data-source-line="66" data-uid="lnk38" id="link_CLI Interface_SetupRepositories UseCase"><path d="M1079.91,560.2366 C1064.84,542.4666 1042.03,518.1166 1018,501.7066 C1002.62,491.2166 953.86,482.1666 941,468.7066 C869.42,393.7966 940.85,314.0066 859,250.4666 C805.67,209.0666 622.79,232.6266 557,217.4666 C531.96,211.6966 510.6984,204.6987 487.9984,196.0687" fill="none" id="CLI Interface-to-SetupRepositories UseCase" style="stroke:#181818;stroke-width:1;"/><polygon fill="#181818" points="482.39,193.9366,489.3811,200.8737,487.0636,195.7134,492.224,193.3959,482.39,193.9366" style="stroke:#181818;stroke-width:1;"/></g><!--link CLI Interface to InstallSoftware UseCase--><g class="link" data-entity-1="CLI Interface" data-entity-2="InstallSoftware UseCase" data-source-line="67" data-uid="lnk39" id="link_CLI Interface_InstallSoftware UseCase"><path d="M1074.79,560.3766 C1053.56,538.6066 1022.56,503.8766 1003,468.7066 C947.62,369.1266 1012.32,294.9366 922,225.4666 C910.62,216.7066 807.02,220.5666 793,217.4666 C769.15,212.1866 749.3224,205.1424 728.2524,196.1924" fill="none" id="CLI Interface-to-InstallSoftware UseCase" style="stroke:#181818;stroke-width:1;"/><polygon fill="#181818" points="722.73,193.8466,729.4498,201.0469,727.332,195.8014,732.5775,193.6836,722.73,193.8466" style="stroke:#181818;stroke-width:1;"/></g><!--link CLI Interface to ConfigureNPMRC UseCase--><g class="link" data-entity-1="CLI Interface" data-entity-2="ConfigureNPMRC UseCase" data-source-line="68" data-uid="lnk40" id="link_CLI Interface_ConfigureNPMRC UseCase"><path d="M1096.35,560.2866 C1091,500.3566 1069.74,334.7966 993,225.4666 C984.31,213.0766 976.7897,205.8511 964.5997,197.3411" fill="none" id="CLI Interface-to-ConfigureNPMRC UseCase" style="stroke:#181818;stroke-width:1;"/><polygon fill="#181818" points="959.68,193.9066,964.7699,202.3382,963.7798,196.7687,969.3493,195.7785,959.68,193.9066" style="stroke:#181818;stroke-width:1;"/></g><!--link SetupRepositories UseCase to GitService--><g class="link" data-entity-1="SetupRepositories UseCase" data-entity-2="GitService" data-source-line="70" data-uid="lnk41" id="link_SetupRepositories UseCase_GitService"><path d="M435.98,193.7766 C451.94,238.8966 485.1383,332.7203 495.2383,361.2603" fill="none" id="SetupRepositories UseCase-to-GitService" style="stroke:#181818;stroke-width:1;"/><polygon fill="#181818" points="497.24,366.9166,498.0083,357.0977,495.5719,362.203,490.4666,359.7666,497.24,366.9166" style="stroke:#181818;stroke-width:1;"/></g><!--link InstallSoftware UseCase to SoftwareService--><g class="link" data-entity-1="InstallSoftware UseCase" data-entity-2="SoftwareService" data-source-line="71" data-uid="lnk42" id="link_InstallSoftware UseCase_SoftwareService"><path d="M670.68,193.7766 C662.03,238.8966 644.0894,332.4838 638.6194,361.0238" fill="none" id="InstallSoftware UseCase-to-SoftwareService" style="stroke:#181818;stroke-width:1;"/><polygon fill="#181818" points="637.49,366.9166,643.1126,358.8304,638.4312,362.0059,635.2556,357.3245,637.49,366.9166" style="stroke:#181818;stroke-width:1;"/></g><!--link ConfigureNPMRC UseCase to NPMRCService--><g class="link" data-entity-1="ConfigureNPMRC UseCase" data-entity-2="NPMRCService" data-source-line="72" data-uid="lnk43" id="link_ConfigureNPMRC UseCase_NPMRCService"><path d="M904.37,193.7766 C875.1,238.8966 813.8348,333.3426 795.3248,361.8826" fill="none" id="ConfigureNPMRC UseCase-to-NPMRCService" style="stroke:#181818;stroke-width:1;"/><polygon fill="#181818" points="792.06,366.9166,800.3132,361.5422,794.7807,362.7216,793.6013,357.1891,792.06,366.9166" style="stroke:#181818;stroke-width:1;"/></g><!--link SetupRepositories UseCase to ConfigService--><g class="link" data-entity-1="SetupRepositories UseCase" data-entity-2="ConfigService" data-source-line="73" data-uid="lnk44" id="link_SetupRepositories UseCase_ConfigService"><path d="M421.57,193.7766 C408.71,238.8966 382.0057,332.6067 373.8657,361.1467" fill="none" id="SetupRepositories UseCase-to-ConfigService" style="stroke:#181818;stroke-width:1;"/><polygon fill="#181818" points="372.22,366.9166,378.5351,359.3588,373.5914,362.1083,370.8419,357.1646,372.22,366.9166" style="stroke:#181818;stroke-width:1;"/></g><!--reverse link GitService to GitPythonService--><g class="link" data-entity-1="GitService" data-entity-2="GitPythonService" data-source-line="75" data-uid="lnk45" id="link_GitService_GitPythonService"><path d="M486.5283,400.1598 C477.1983,416.3398 463.75,438.7666 442,468.7066 C417.9,501.8966 387.09,537.9266 367.2,560.4766" fill="none" id="GitService-backto-GitPythonService" style="stroke:#181818;stroke-width:1;stroke-dasharray:7,7;"/><polygon fill="none" points="495.52,384.5666,481.3306,397.1626,491.7261,403.1571,495.52,384.5666" style="stroke:#181818;stroke-width:1;"/></g><!--reverse link SoftwareService to BrewSoftwareService--><g class="link" data-entity-1="SoftwareService" data-entity-2="BrewSoftwareService" data-source-line="76" data-uid="lnk46" id="link_SoftwareService_BrewSoftwareService"><path d="M625.5936,401.1015 C613.2536,430.0115 577.04,514.8866 557.59,560.4666" fill="none" id="SoftwareService-backto-BrewSoftwareService" style="stroke:#181818;stroke-width:1;stroke-dasharray:7,7;"/><polygon fill="none" points="632.66,384.5466,620.0753,398.7461,631.112,403.457,632.66,384.5466" style="stroke:#181818;stroke-width:1;"/></g><!--reverse link NPMRCService to NPMRCFileService--><g class="link" data-entity-1="NPMRCService" data-entity-2="NPMRCFileService" data-source-line="77" data-uid="lnk47" id="link_NPMRCService_NPMRCFileService"><path d="M782.6561,402.2924 C777.7461,431.2024 763.55,514.8866 755.82,560.4666" fill="none" id="NPMRCService-backto-NPMRCFileService" style="stroke:#181818;stroke-width:1;stroke-dasharray:7,7;"/><polygon fill="none" points="785.67,384.5466,776.7408,401.2878,788.5714,403.2971,785.67,384.5466" style="stroke:#181818;stroke-width:1;"/></g><!--reverse link ConfigService to RepositoryConfigService--><g class="link" data-entity-1="ConfigService" data-entity-2="RepositoryConfigService" data-source-line="78" data-uid="lnk48" id="link_ConfigService_RepositoryConfigService"><path d="M347.7014,396.1127 C314.8814,424.6727 211.53,514.6166 158.94,560.3766" fill="none" id="ConfigService-backto-RepositoryConfigService" style="stroke:#181818;stroke-width:1;stroke-dasharray:7,7;"/><polygon fill="none" points="361.28,384.2966,343.7627,391.5865,351.6401,400.6389,361.28,384.2966" style="stroke:#181818;stroke-width:1;"/></g><!--link GitPythonService to Git CLI--><g class="link" data-entity-1="GitPythonService" data-entity-2="Git CLI" data-source-line="80" data-uid="lnk49" id="link_GitPythonService_Git CLI"><path d="M354.28,607.6766 C364.62,639.9266 381.5983,692.903 391.9183,725.093" fill="none" id="GitPythonService-to-Git CLI" style="stroke:#181818;stroke-width:1;"/><polygon fill="#181818" points="393.75,730.8066,394.8114,721.0151,392.2235,726.0453,387.1933,723.4574,393.75,730.8066" style="stroke:#181818;stroke-width:1;"/></g><!--link GitPythonService to File System--><g class="link" data-entity-1="GitPythonService" data-entity-2="File System" data-source-line="81" data-uid="lnk50" id="link_GitPythonService_File System"><path d="M364.02,607.3866 C381.03,627.9166 409.18,657.1866 441,671.1966 C520.21,706.0866 555.34,654.3566 635,688.1966 C657.08,697.5766 673.2004,711.6162 687.0704,726.5062" fill="none" id="GitPythonService-to-File System" style="stroke:#181818;stroke-width:1;"/><polygon fill="#181818" points="691.16,730.8966,687.9525,721.5846,687.752,727.2379,682.0987,727.0374,691.16,730.8966" style="stroke:#181818;stroke-width:1;"/></g><!--link BrewSoftwareService to Homebrew CLI--><g class="link" data-entity-1="BrewSoftwareService" data-entity-2="Homebrew CLI" data-source-line="82" data-uid="lnk51" id="link_BrewSoftwareService_Homebrew CLI"><path d="M548,607.6766 C548,639.9266 548,692.6166 548,724.8066" fill="none" id="BrewSoftwareService-to-Homebrew CLI" style="stroke:#181818;stroke-width:1;"/><polygon fill="#181818" points="548,730.8066,552,721.8066,548,725.8066,544,721.8066,548,730.8066" style="stroke:#181818;stroke-width:1;"/></g><!--link NPMRCFileService to File System--><g class="link" data-entity-1="NPMRCFileService" data-entity-2="File System" data-source-line="83" data-uid="lnk52" id="link_NPMRCFileService_File System"><path d="M746.34,607.6766 C738.3,639.9266 725.1222,692.795 717.0922,724.985" fill="none" id="NPMRCFileService-to-File System" style="stroke:#181818;stroke-width:1;"/><polygon fill="#181818" points="715.64,730.8066,721.6994,723.0423,716.8502,725.9552,713.9373,721.106,715.64,730.8066" style="stroke:#181818;stroke-width:1;"/></g><!--link RepositoryConfigService to YAML Files--><g class="link" data-entity-1="RepositoryConfigService" data-entity-2="YAML Files" data-source-line="84" data-uid="lnk53" id="link_RepositoryConfigService_YAML Files"><path d="M151.07,607.6766 C176.72,639.9266 219.6545,693.9213 245.2645,726.1113" fill="none" id="RepositoryConfigService-to-YAML Files" style="stroke:#181818;stroke-width:1;"/><polygon fill="#181818" points="249,730.8066,246.5269,721.2733,245.8871,726.8938,240.2665,726.254,249,730.8066" style="stroke:#181818;stroke-width:1;"/></g><!--link PythonService to File System--><g class="link" data-entity-1="PythonService" data-entity-2="File System" data-source-line="85" data-uid="lnk54" id="link_PythonService_File System"><path d="M917.6,607.3766 C902.07,627.0366 877,654.9366 849,671.1966 C823.55,685.9766 811,674.4066 785,688.1966 C764.42,699.1166 748.9191,712.4104 734.8591,726.5604" fill="none" id="PythonService-to-File System" style="stroke:#181818;stroke-width:1;"/><polygon fill="#181818" points="730.63,730.8166,739.8111,727.2517,734.1542,727.2698,734.1362,721.6129,730.63,730.8166" style="stroke:#181818;stroke-width:1;"/></g><!--link SetupRepositories UseCase to Repository--><g class="link" data-entity-1="SetupRepositories UseCase" data-entity-2="Repository" data-source-line="87" data-uid="lnk55" id="link_SetupRepositories UseCase_Repository"><path d="M479.35,193.9266 C502.58,203.0766 530.68,212.5966 557,217.4666 C636.77,232.2366 841.05,220.0666 922,225.4666 C989.83,229.9966 1006.18,237.8266 1074,242.4666 C1091.58,243.6666 1375.01,243.0666 1391,250.4666 C1437.2,271.8466 1469.2929,317.3879 1486.7429,346.9879" fill="none" id="SetupRepositories UseCase-to-Repository" style="stroke:#181818;stroke-width:1;stroke-dasharray:7,7;"/><polygon fill="#181818" points="1489.79,352.1566,1488.6652,342.3721,1487.2508,347.8493,1481.7736,346.4349,1489.79,352.1566" style="stroke:#181818;stroke-width:1;"/><text fill="#000000" font-family="sans-serif" font-size="13" lengthAdjust="spacing" textLength="45.1318" x="1075" y="239.0349">creates</text></g><!--link InstallSoftware UseCase to Software--><g class="link" data-entity-1="InstallSoftware UseCase" data-entity-2="Software" data-source-line="88" data-uid="lnk56" id="link_InstallSoftware UseCase_Software"><path d="M721.79,193.9166 C743.01,203.0566 768.73,212.5766 793,217.4666 C866.22,232.2066 1056.15,209.0066 1129,225.4666 C1147.05,229.5466 1148.94,238.4266 1167,242.4666 C1189.18,247.4266 1556.64,238.5666 1576,250.4666 C1612.42,272.8466 1628.4189,316.8697 1635.8289,346.1697" fill="none" id="InstallSoftware UseCase-to-Software" style="stroke:#181818;stroke-width:1;stroke-dasharray:7,7;"/><polygon fill="#181818" points="1637.3,351.9866,1638.9713,342.2805,1636.0741,347.1392,1631.2155,344.242,1637.3,351.9866" style="stroke:#181818;stroke-width:1;"/><text fill="#000000" font-family="sans-serif" font-size="13" lengthAdjust="spacing" textLength="28.5645" x="1168" y="239.0349">uses</text></g><!--link ConfigureNPMRC UseCase to NPMRCConfiguration--><g class="link" data-entity-1="ConfigureNPMRC UseCase" data-entity-2="NPMRCConfiguration" data-source-line="89" data-uid="lnk57" id="link_ConfigureNPMRC UseCase_NPMRCConfiguration"><path d="M964.31,193.8966 C984.51,202.9166 1008.93,212.3466 1032,217.4666 C1068.76,225.6166 1675.13,234.0166 1709,250.4666 C1754.12,272.3766 1785.1389,317.4353 1802.0689,346.8753" fill="none" id="ConfigureNPMRC UseCase-to-NPMRCConfiguration" style="stroke:#181818;stroke-width:1;stroke-dasharray:7,7;"/><polygon fill="#181818" points="1805.06,352.0766,1804.0409,342.2806,1802.5674,347.7422,1797.1058,346.2687,1805.06,352.0766" style="stroke:#181818;stroke-width:1;"/><text fill="#000000" font-family="sans-serif" font-size="13" lengthAdjust="spacing" textLength="45.1318" x="1642.72" y="239.0349">creates</text></g><!--link Repository to DevFolderPath--><g class="link" data-entity-1="Repository" data-entity-2="DevFolderPath" data-source-line="91" data-uid="lnk58" id="link_Repository_DevFolderPath"><path d="M1503.42,399.1766 C1505.92,438.8466 1510.7124,514.8785 1513.2124,554.5285" fill="none" id="Repository-to-DevFolderPath" style="stroke:#181818;stroke-width:1;stroke-dasharray:7,7;"/><polygon fill="#181818" points="1513.59,560.5166,1517.0157,551.2827,1513.2754,555.5265,1509.0316,551.7861,1513.59,560.5166" style="stroke:#181818;stroke-width:1;"/><text fill="#000000" font-family="sans-serif" font-size="13" lengthAdjust="spacing" textLength="28.5645" x="1510.28" y="490.2749">uses</text></g><!--link NPMRCConfiguration to PersonalAccessToken--><g class="link" data-entity-1="NPMRCConfiguration" data-entity-2="PersonalAccessToken" data-source-line="92" data-uid="lnk59" id="link_NPMRCConfiguration_PersonalAccessToken"><path d="M1805.56,399.1766 C1785.37,438.8466 1746.3326,515.5198 1726.1426,555.1698" fill="none" id="NPMRCConfiguration-to-PersonalAccessToken" style="stroke:#181818;stroke-width:1;stroke-dasharray:7,7;"/><polygon fill="#181818" points="1723.42,560.5166,1731.0684,554.3115,1725.6888,556.061,1723.9394,550.6814,1723.42,560.5166" style="stroke:#181818;stroke-width:1;"/><text fill="#000000" font-family="sans-serif" font-size="13" lengthAdjust="spacing" textLength="53.2061" x="1765.5" y="490.2749">contains</text></g><!--link Domain Layer to GMN60--><g class="link" data-entity-1="Domain Layer" data-entity-2="GMN60" data-source-line="96" data-uid="lnk62" id="link_Domain Layer_GMN60"><path d="M2042.0864,375.7066 C2042.1765,375.7066 2042.2666,375.7066 2042.3567,375.7066 C2042.717,375.7066 2043.0773,375.7066 2043.4377,375.7066 C2046.3203,375.7066 2049.2031,375.7066 2052.0863,375.7066 C2057.8525,375.7066 2063.62,375.7066 2069.39,375.7066" fill="none" id="Domain Layer-GMN60" style="stroke:#181818;stroke-width:1;stroke-dasharray:7,7;"/></g><!--link GMN63 to Infrastructure--><g class="link" data-entity-1="GMN63" data-entity-2="Infrastructure" data-source-line="104" data-uid="lnk65" id="link_GMN63_Infrastructure"><path d="M2088.47,532.6966 C2057.97,513.8466 2021.02,494.7766 1984.5,485.2066 C1926.78,470.0866 1502.95,463.1866 1447.5,485.2066 C1420.185,496.0566 1396.76,518.9916 1379.7213,540.0291 C1371.2019,550.5478 1364.2791,560.5922 1359.2648,568.4144 C1358.9515,568.9033 1358.6455,569.3835 1358.3471,569.8546 C1358.2725,569.9723 1358.1984,570.0895 1358.1247,570.2062" fill="none" id="GMN63-Infrastructure" style="stroke:#181818;stroke-width:1;stroke-dasharray:7,7;"/></g><!--link Application Layer to GMN66--><g class="link" data-entity-1="Application Layer" data-entity-2="GMN66" data-source-line="113" data-uid="lnk68" id="link_Application Layer_GMN66"><path d="M1084.0693,172.0171 C1084.2252,172.0332 1084.3831,172.0496 1084.5431,172.0662 C1084.8629,172.0995 1085.1909,172.1337 1085.5268,172.1689 C1090.9018,172.7329 1098.3136,173.5536 1107.1447,174.6419 C1124.8069,176.8184 1148.1463,180.0653 1172.2225,184.4691 C1220.375,193.2766 1271.475,206.7116 1286,225.4666 C1309.78,256.1666 1294.11,299.9666 1276.05,332.1866" fill="none" id="Application Layer-GMN66" style="stroke:#181818;stroke-width:1;stroke-dasharray:7,7;"/></g><!--SRC=[XLRRRXit47tVhnYu3qqCo0rIsuYA8e2qaci1iYr8Je0YzGF5fIJMAt91Sgq8RO1-Ip-jNzBXPQ_QTVnWG3E7CsUkEuQRb44yduxkORICRsUFq_ZnqtBwXrWnasSm5IzSIR5dmi3gg0tRHv5-vY8ZYknXJUZpLibS9B5CfOB3ZXiMHJ_2X6suO61s3AWK55yhJY4bHwOqv9gBBMJubcoPXWCtEw1SqJmb2hGvfgpc8i3WhmZmRsMre1WrH6mHPsNZJX9E8rN2b9UkKuH5toovcTWeeetAgSaLWxbb1MyUSiFKNce30vWGzGpZD6TleyB_MVFL6VpmVder_70PY7s9vpCqZ2OsXB8dB_kDcyNHx2JcKhrm58ENZnKxhEJ678XYXSfhxXTto_Y6fotnacLISoFLCPPYmxTDRTD7CFJvhXIue4TPbd9A39UYYFYJnieJZIKOm1rBUBxtCGDKKPyymy2lniFnv2e4NY9BQuYu70tVJOO1uVYuRYh3uEWJyHR-L65cGXkIfaLcIWHK41y-vjybgcdZMvDFMGmDRnPI6VqMYLsFHzVJdsl4U842B5R8M8UoLIs03eoZr6-YKRb0s5Lc8lU4bqMPy-tEj7kl3i4eXkFu_VIwNO2fCDnmb__nXydbpRjw_giEgYMyYAecSa4KMNPbVmh1jjBxcI15U5Z_YRFOxNB2NcvaYWEu86PNSx707I05IKSKQwCVvJCJfqsmP3gJeYgjozJqAoOJNuPDf2EQoZp1o5lois8eiJzK60WxL44V9BTopzOuYRZzPjN0kbzG_hpDrp1Q5FhVHtTpi9Pq4AnMjp3QudeBKuQP4vWGJ9iTgWdBc4YOeBRVCuczWFs02KyYpmm6WuydcwFrssDU6PzEVDyeTQFxfYfwnQzxMPkP_kcrmDRyH7qk7RWnID-Zq1ohg684l_vzST6nWwFsB7jSrqw6g4ub04zNT8D2GFLkxAZZg-2AKFHUBw3HmTry7QxPrwTykwprqVNOUjj_-IwrLqjsSV6niOpW5w2A4SFqAnta7fNB2f_azgC5_Lta7dIjiifRr63X7ZGNLd0JTTfn-Av5PZr8ON1RQ_VLJH8WYjgBn1yRGbhdzZyej-dbfhNUtM8vFuybeiVsL4BRC9TRJi_FdUw_V_w56poDs47YbJB31UEtZ2crzn9OiHAJsWug0N6W2El2WShJcluMgQL7GAg6hF7CGWkEUUIPfspZYRTlei2ztCUnlVsKq9tCTSOet-1PI6N2IltifmUG6VE9rk7ROnMbKLp7GB5FAheJWZIny41S9IfVjYsrQykQpNOqQscCtBjuJg-T455TKHPbQNDM2yrUGDJIa5XnJ9ttLqLMdWA9lOwv3p3S9YMgvcbGPgYdJB740vSBsy-G-1wI_eDSnVW_]--></g></svg>