<svg xmlns="http://www.w3.org/2000/svg" xmlns:xlink="http://www.w3.org/1999/xlink" contentStyleType="text/css" data-diagram-type="SEQUENCE" height="1774px" preserveAspectRatio="none" style="width:1994px;height:1774px;background:#FFFFFF;" version="1.1" viewBox="0 0 1994 1774" width="1994px" zoomAndPan="magnify"><title>CLI Flow Sequence Diagram</title><defs/><g><text fill="#000000" font-family="sans-serif" font-size="14" font-weight="bold" lengthAdjust="spacing" textLength="199.2266" x="899.2388" y="28.5352">CLI Flow Sequence Diagram</text><text fill="#000000" font-family="sans-serif" font-size="14" font-weight="bold" lengthAdjust="spacing" textLength="253.3398" x="872.1821" y="45.0234">setup-environment Execution Flow</text><rect fill="none" height="134.5527" style="stroke:#000000;stroke-width:1.5;" width="1345.7563" x="446.1362" y="854.918"/><rect fill="none" height="251.7949" style="stroke:#000000;stroke-width:1.5;" width="1971.7041" x="17" y="1032.7813"/><g><title>User</title><rect fill="#000000" fill-opacity="0.00000" height="1558.0117" width="8" x="41.1826" y="135.4648"/><line style="stroke:#181818;stroke-width:0.5;stroke-dasharray:5,5;" x1="45" x2="45" y1="135.4648" y2="1693.4766"/></g><g><title>CLI</title><rect fill="#000000" fill-opacity="0.00000" height="1558.0117" width="8" x="194.0728" y="135.4648"/><line style="stroke:#181818;stroke-width:0.5;stroke-dasharray:5,5;" x1="197.4805" x2="197.4805" y1="135.4648" y2="1693.4766"/></g><g><title>RepositoryConfigService</title><rect fill="#000000" fill-opacity="0.00000" height="1558.0117" width="8" x="352.958" y="135.4648"/><line style="stroke:#181818;stroke-width:0.5;stroke-dasharray:5,5;" x1="356.7798" x2="356.7798" y1="135.4648" y2="1693.4766"/></g><g><title>SetupRepositoriesUseCase</title><rect fill="#000000" fill-opacity="0.00000" height="1558.0117" width="8" x="548.5674" y="135.4648"/><line style="stroke:#181818;stroke-width:0.5;stroke-dasharray:5,5;" x1="552.1362" x2="552.1362" y1="135.4648" y2="1693.4766"/></g><g><title>InstallSoftwareUseCase</title><rect fill="#000000" fill-opacity="0.00000" height="1558.0117" width="8" x="740.2393" y="135.4648"/><line style="stroke:#181818;stroke-width:0.5;stroke-dasharray:5,5;" x1="743.9985" x2="743.9985" y1="135.4648" y2="1693.4766"/></g><g><title>ConfigureNPMRCUseCase</title><rect fill="#000000" fill-opacity="0.00000" height="1558.0117" width="8" x="928.8726" y="135.4648"/><line style="stroke:#181818;stroke-width:0.5;stroke-dasharray:5,5;" x1="932.48" x2="932.48" y1="135.4648" y2="1693.4766"/></g><g><title>GitPythonService</title><rect fill="#000000" fill-opacity="0.00000" height="1558.0117" width="8" x="1095.7642" y="135.4648"/><line style="stroke:#181818;stroke-width:0.5;stroke-dasharray:5,5;" x1="1099.2651" x2="1099.2651" y1="135.4648" y2="1693.4766"/></g><g><title>BrewSoftwareService</title><rect fill="#000000" fill-opacity="0.00000" height="1558.0117" width="8" x="1245.3984" y="135.4648"/><line style="stroke:#181818;stroke-width:0.5;stroke-dasharray:5,5;" x1="1249.2632" x2="1249.2632" y1="135.4648" y2="1693.4766"/></g><g><title>NPMRCFileService</title><rect fill="#000000" fill-opacity="0.00000" height="1558.0117" width="8" x="1398.2388" y="135.4648"/><line style="stroke:#181818;stroke-width:0.5;stroke-dasharray:5,5;" x1="1401.5337" x2="1401.5337" y1="135.4648" y2="1693.4766"/></g><g><title>GitInstallService</title><rect fill="#000000" fill-opacity="0.00000" height="1558.0117" width="8" x="1535.77" y="135.4648"/><line style="stroke:#181818;stroke-width:0.5;stroke-dasharray:5,5;" x1="1538.9438" x2="1538.9438" y1="135.4648" y2="1693.4766"/></g><g><title>YAML Files</title><rect fill="#000000" fill-opacity="0.00000" height="1558.0117" width="8" x="1669.4424" y="135.4648"/><line style="stroke:#181818;stroke-width:0.5;stroke-dasharray:5,5;" x1="1673.0068" x2="1673.0068" y1="135.4648" y2="1693.4766"/></g><g><title>Git CLI</title><rect fill="#000000" fill-opacity="0.00000" height="1558.0117" width="8" x="1748.3853" y="135.4648"/><line style="stroke:#181818;stroke-width:0.5;stroke-dasharray:5,5;" x1="1751.8779" x2="1751.8779" y1="135.4648" y2="1693.4766"/></g><g><title>Homebrew</title><rect fill="#000000" fill-opacity="0.00000" height="1558.0117" width="8" x="1831.335" y="135.4648"/><line style="stroke:#181818;stroke-width:0.5;stroke-dasharray:5,5;" x1="1834.8926" x2="1834.8926" y1="135.4648" y2="1693.4766"/></g><g><title>File System</title><rect fill="#000000" fill-opacity="0.00000" height="1558.0117" width="8" x="1929.7407" y="135.4648"/><line style="stroke:#181818;stroke-width:0.5;stroke-dasharray:5,5;" x1="1932.7773" x2="1932.7773" y1="135.4648" y2="1693.4766"/></g><g class="participant participant-head" data-participant="User"><text fill="#000000" font-family="sans-serif" font-size="14" lengthAdjust="spacing" textLength="30.3652" x="27" y="132.5117">User</text><ellipse cx="45.1826" cy="67.4766" fill="#E2E2F0" rx="8" ry="8" style="stroke:#181818;stroke-width:0.5;"/><path d="M45.1826,75.4766 L45.1826,102.4766 M32.1826,83.4766 L58.1826,83.4766 M45.1826,102.4766 L32.1826,117.4766 M45.1826,102.4766 L58.1826,117.4766" fill="none" style="stroke:#181818;stroke-width:0.5;"/></g><g class="participant participant-tail" data-participant="User"><text fill="#000000" font-family="sans-serif" font-size="14" lengthAdjust="spacing" textLength="30.3652" x="27" y="1706.0117">User</text><ellipse cx="45.1826" cy="1717.4648" fill="#E2E2F0" rx="8" ry="8" style="stroke:#181818;stroke-width:0.5;"/><path d="M45.1826,1725.4648 L45.1826,1752.4648 M32.1826,1733.4648 L58.1826,1733.4648 M45.1826,1752.4648 L32.1826,1767.4648 M45.1826,1752.4648 L58.1826,1767.4648" fill="none" style="stroke:#181818;stroke-width:0.5;"/></g><g class="participant participant-head" data-participant="CLI"><rect fill="#E2E2F0" height="30.4883" rx="2.5" ry="2.5" style="stroke:#181818;stroke-width:0.5;" width="35.1846" x="180.4805" y="103.9766"/><text fill="#000000" font-family="sans-serif" font-size="14" lengthAdjust="spacing" textLength="21.1846" x="187.4805" y="124.5117">CLI</text></g><g class="participant participant-tail" data-participant="CLI"><rect fill="#E2E2F0" height="30.4883" rx="2.5" ry="2.5" style="stroke:#181818;stroke-width:0.5;" width="35.1846" x="180.4805" y="1692.4766"/><text fill="#000000" font-family="sans-serif" font-size="14" lengthAdjust="spacing" textLength="21.1846" x="187.4805" y="1713.0117">CLI</text></g><g class="participant participant-head" data-participant="Config"><rect fill="#E2E2F0" height="30.4883" rx="2.5" ry="2.5" style="stroke:#181818;stroke-width:0.5;" width="178.3564" x="267.7798" y="103.9766"/><text fill="#000000" font-family="sans-serif" font-size="14" lengthAdjust="spacing" textLength="164.3564" x="274.7798" y="124.5117">RepositoryConfigService</text></g><g class="participant participant-tail" data-participant="Config"><rect fill="#E2E2F0" height="30.4883" rx="2.5" ry="2.5" style="stroke:#181818;stroke-width:0.5;" width="178.3564" x="267.7798" y="1692.4766"/><text fill="#000000" font-family="sans-serif" font-size="14" lengthAdjust="spacing" textLength="164.3564" x="274.7798" y="1713.0117">RepositoryConfigService</text></g><g class="participant participant-head" data-participant="SetupUC"><rect fill="#E2E2F0" height="30.4883" rx="2.5" ry="2.5" style="stroke:#181818;stroke-width:0.5;" width="192.8623" x="456.1362" y="103.9766"/><text fill="#000000" font-family="sans-serif" font-size="14" lengthAdjust="spacing" textLength="178.8623" x="463.1362" y="124.5117">SetupRepositoriesUseCase</text></g><g class="participant participant-tail" data-participant="SetupUC"><rect fill="#E2E2F0" height="30.4883" rx="2.5" ry="2.5" style="stroke:#181818;stroke-width:0.5;" width="192.8623" x="456.1362" y="1692.4766"/><text fill="#000000" font-family="sans-serif" font-size="14" lengthAdjust="spacing" textLength="178.8623" x="463.1362" y="1713.0117">SetupRepositoriesUseCase</text></g><g class="participant participant-head" data-participant="InstallUC"><rect fill="#E2E2F0" height="30.4883" rx="2.5" ry="2.5" style="stroke:#181818;stroke-width:0.5;" width="170.4814" x="658.9985" y="103.9766"/><text fill="#000000" font-family="sans-serif" font-size="14" lengthAdjust="spacing" textLength="156.4814" x="665.9985" y="124.5117">InstallSoftwareUseCase</text></g><g class="participant participant-tail" data-participant="InstallUC"><rect fill="#E2E2F0" height="30.4883" rx="2.5" ry="2.5" style="stroke:#181818;stroke-width:0.5;" width="170.4814" x="658.9985" y="1692.4766"/><text fill="#000000" font-family="sans-serif" font-size="14" lengthAdjust="spacing" textLength="156.4814" x="665.9985" y="1713.0117">InstallSoftwareUseCase</text></g><g class="participant participant-head" data-participant="NPMrcUC"><rect fill="#E2E2F0" height="30.4883" rx="2.5" ry="2.5" style="stroke:#181818;stroke-width:0.5;" width="186.7852" x="839.48" y="103.9766"/><text fill="#000000" font-family="sans-serif" font-size="14" lengthAdjust="spacing" textLength="172.7852" x="846.48" y="124.5117">ConfigureNPMRCUseCase</text></g><g class="participant participant-tail" data-participant="NPMrcUC"><rect fill="#E2E2F0" height="30.4883" rx="2.5" ry="2.5" style="stroke:#181818;stroke-width:0.5;" width="186.7852" x="839.48" y="1692.4766"/><text fill="#000000" font-family="sans-serif" font-size="14" lengthAdjust="spacing" textLength="172.7852" x="846.48" y="1713.0117">ConfigureNPMRCUseCase</text></g><g class="participant participant-head" data-participant="GitSvc"><rect fill="#E2E2F0" height="30.4883" rx="2.5" ry="2.5" style="stroke:#181818;stroke-width:0.5;" width="126.998" x="1036.2651" y="103.9766"/><text fill="#000000" font-family="sans-serif" font-size="14" lengthAdjust="spacing" textLength="112.998" x="1043.2651" y="124.5117">GitPythonService</text></g><g class="participant participant-tail" data-participant="GitSvc"><rect fill="#E2E2F0" height="30.4883" rx="2.5" ry="2.5" style="stroke:#181818;stroke-width:0.5;" width="126.998" x="1036.2651" y="1692.4766"/><text fill="#000000" font-family="sans-serif" font-size="14" lengthAdjust="spacing" textLength="112.998" x="1043.2651" y="1713.0117">GitPythonService</text></g><g class="participant participant-head" data-participant="BrewSvc"><rect fill="#E2E2F0" height="30.4883" rx="2.5" ry="2.5" style="stroke:#181818;stroke-width:0.5;" width="152.2705" x="1173.2632" y="103.9766"/><text fill="#000000" font-family="sans-serif" font-size="14" lengthAdjust="spacing" textLength="138.2705" x="1180.2632" y="124.5117">BrewSoftwareService</text></g><g class="participant participant-tail" data-participant="BrewSvc"><rect fill="#E2E2F0" height="30.4883" rx="2.5" ry="2.5" style="stroke:#181818;stroke-width:0.5;" width="152.2705" x="1173.2632" y="1692.4766"/><text fill="#000000" font-family="sans-serif" font-size="14" lengthAdjust="spacing" textLength="138.2705" x="1180.2632" y="1713.0117">BrewSoftwareService</text></g><g class="participant participant-head" data-participant="NPMSvc"><rect fill="#E2E2F0" height="30.4883" rx="2.5" ry="2.5" style="stroke:#181818;stroke-width:0.5;" width="133.4102" x="1335.5337" y="103.9766"/><text fill="#000000" font-family="sans-serif" font-size="14" lengthAdjust="spacing" textLength="119.4102" x="1342.5337" y="124.5117">NPMRCFileService</text></g><g class="participant participant-tail" data-participant="NPMSvc"><rect fill="#E2E2F0" height="30.4883" rx="2.5" ry="2.5" style="stroke:#181818;stroke-width:0.5;" width="133.4102" x="1335.5337" y="1692.4766"/><text fill="#000000" font-family="sans-serif" font-size="14" lengthAdjust="spacing" textLength="119.4102" x="1342.5337" y="1713.0117">NPMRCFileService</text></g><g class="participant participant-head" data-participant="GitInstall"><rect fill="#E2E2F0" height="30.4883" rx="2.5" ry="2.5" style="stroke:#181818;stroke-width:0.5;" width="121.6523" x="1478.9438" y="103.9766"/><text fill="#000000" font-family="sans-serif" font-size="14" lengthAdjust="spacing" textLength="107.6523" x="1485.9438" y="124.5117">GitInstallService</text></g><g class="participant participant-tail" data-participant="GitInstall"><rect fill="#E2E2F0" height="30.4883" rx="2.5" ry="2.5" style="stroke:#181818;stroke-width:0.5;" width="121.6523" x="1478.9438" y="1692.4766"/><text fill="#000000" font-family="sans-serif" font-size="14" lengthAdjust="spacing" textLength="107.6523" x="1485.9438" y="1713.0117">GitInstallService</text></g><g class="participant participant-head" data-participant="YAML"><text fill="#000000" font-family="sans-serif" font-size="14" lengthAdjust="spacing" textLength="72.8711" x="1634.0068" y="132.5117">YAML Files</text><path d="M1655.4424,82.9766 C1655.4424,72.9766 1673.4424,72.9766 1673.4424,72.9766 C1673.4424,72.9766 1691.4424,72.9766 1691.4424,82.9766 L1691.4424,108.9766 C1691.4424,118.9766 1673.4424,118.9766 1673.4424,118.9766 C1673.4424,118.9766 1655.4424,118.9766 1655.4424,108.9766 L1655.4424,82.9766" fill="#E2E2F0" style="stroke:#181818;stroke-width:0.5;"/><path d="M1655.4424,82.9766 C1655.4424,92.9766 1673.4424,92.9766 1673.4424,92.9766 C1673.4424,92.9766 1691.4424,92.9766 1691.4424,82.9766" fill="none" style="stroke:#181818;stroke-width:0.5;"/></g><g class="participant participant-tail" data-participant="YAML"><text fill="#000000" font-family="sans-serif" font-size="14" lengthAdjust="spacing" textLength="72.8711" x="1634.0068" y="1706.0117">YAML Files</text><path d="M1655.4424,1718.9648 C1655.4424,1708.9648 1673.4424,1708.9648 1673.4424,1708.9648 C1673.4424,1708.9648 1691.4424,1708.9648 1691.4424,1718.9648 L1691.4424,1744.9648 C1691.4424,1754.9648 1673.4424,1754.9648 1673.4424,1754.9648 C1673.4424,1754.9648 1655.4424,1754.9648 1655.4424,1744.9648 L1655.4424,1718.9648" fill="#E2E2F0" style="stroke:#181818;stroke-width:0.5;"/><path d="M1655.4424,1718.9648 C1655.4424,1728.9648 1673.4424,1728.9648 1673.4424,1728.9648 C1673.4424,1728.9648 1691.4424,1728.9648 1691.4424,1718.9648" fill="none" style="stroke:#181818;stroke-width:0.5;"/></g><g class="participant participant-head" data-participant="Git"><rect fill="#E2E2F0" height="30.4883" rx="2.5" ry="2.5" style="stroke:#181818;stroke-width:0.5;" width="59.0146" x="1722.8779" y="103.9766"/><text fill="#000000" font-family="sans-serif" font-size="14" lengthAdjust="spacing" textLength="45.0146" x="1729.8779" y="124.5117">Git CLI</text></g><g class="participant participant-tail" data-participant="Git"><rect fill="#E2E2F0" height="30.4883" rx="2.5" ry="2.5" style="stroke:#181818;stroke-width:0.5;" width="59.0146" x="1722.8779" y="1692.4766"/><text fill="#000000" font-family="sans-serif" font-size="14" lengthAdjust="spacing" textLength="45.0146" x="1729.8779" y="1713.0117">Git CLI</text></g><g class="participant participant-head" data-participant="Brew"><rect fill="#E2E2F0" height="30.4883" rx="2.5" ry="2.5" style="stroke:#181818;stroke-width:0.5;" width="86.8848" x="1791.8926" y="103.9766"/><text fill="#000000" font-family="sans-serif" font-size="14" lengthAdjust="spacing" textLength="72.8848" x="1798.8926" y="124.5117">Homebrew</text></g><g class="participant participant-tail" data-participant="Brew"><rect fill="#E2E2F0" height="30.4883" rx="2.5" ry="2.5" style="stroke:#181818;stroke-width:0.5;" width="86.8848" x="1791.8926" y="1692.4766"/><text fill="#000000" font-family="sans-serif" font-size="14" lengthAdjust="spacing" textLength="72.8848" x="1798.8926" y="1713.0117">Homebrew</text></g><g class="participant participant-head" data-participant="FS"><rect fill="#E2E2F0" height="30.4883" rx="2.5" ry="2.5" style="stroke:#181818;stroke-width:0.5;" width="89.9268" x="1888.7773" y="103.9766"/><text fill="#000000" font-family="sans-serif" font-size="14" lengthAdjust="spacing" textLength="75.9268" x="1895.7773" y="124.5117">File System</text></g><g class="participant participant-tail" data-participant="FS"><rect fill="#E2E2F0" height="30.4883" rx="2.5" ry="2.5" style="stroke:#181818;stroke-width:0.5;" width="89.9268" x="1888.7773" y="1692.4766"/><text fill="#000000" font-family="sans-serif" font-size="14" lengthAdjust="spacing" textLength="75.9268" x="1895.7773" y="1713.0117">File System</text></g><g class="message" data-participant-1="User" data-participant-2="CLI"><polygon fill="#181818" points="186.0728,178.0859,196.0728,182.0859,186.0728,186.0859,190.0728,182.0859" style="stroke:#181818;stroke-width:1;"/><line style="stroke:#181818;stroke-width:1;" x1="45.1826" x2="192.0728" y1="182.0859" y2="182.0859"/><text fill="#000000" font-family="sans-serif" font-size="13" lengthAdjust="spacing" textLength="121.9829" x="52.1826" y="162.0332">setup-environment</text><text fill="#000000" font-family="sans-serif" font-size="13" lengthAdjust="spacing" textLength="115.0703" x="52.1826" y="177.3438">--dev-folder /dev</text></g><g class="message" data-participant-1="CLI" data-participant-2="Config"><polygon fill="#181818" points="344.958,207.3965,354.958,211.3965,344.958,215.3965,348.958,211.3965" style="stroke:#181818;stroke-width:1;"/><line style="stroke:#181818;stroke-width:1;" x1="198.0728" x2="350.958" y1="211.3965" y2="211.3965"/><text fill="#000000" font-family="sans-serif" font-size="13" lengthAdjust="spacing" textLength="116.9683" x="205.0728" y="206.6543">load_repositories()</text></g><g class="message" data-participant-1="Config" data-participant-2="YAML"><polygon fill="#181818" points="1661.4424,236.707,1671.4424,240.707,1661.4424,244.707,1665.4424,240.707" style="stroke:#181818;stroke-width:1;"/><line style="stroke:#181818;stroke-width:1;" x1="356.958" x2="1667.4424" y1="240.707" y2="240.707"/><text fill="#000000" font-family="sans-serif" font-size="13" lengthAdjust="spacing" textLength="140.9243" x="363.958" y="235.9648">read repositories.yaml</text></g><g class="message" data-participant-1="YAML" data-participant-2="Config"><polygon fill="#181818" points="367.958,266.0176,357.958,270.0176,367.958,274.0176,363.958,270.0176" style="stroke:#181818;stroke-width:1;"/><line style="stroke:#181818;stroke-width:1;stroke-dasharray:2,2;" x1="361.958" x2="1672.4424" y1="270.0176" y2="270.0176"/><text fill="#000000" font-family="sans-serif" font-size="13" lengthAdjust="spacing" textLength="95.5894" x="373.958" y="265.2754">repository data</text></g><g class="message" data-participant-1="Config" data-participant-2="CLI"><polygon fill="#181818" points="209.0728,295.3281,199.0728,299.3281,209.0728,303.3281,205.0728,299.3281" style="stroke:#181818;stroke-width:1;"/><line style="stroke:#181818;stroke-width:1;stroke-dasharray:2,2;" x1="203.0728" x2="355.958" y1="299.3281" y2="299.3281"/><text fill="#000000" font-family="sans-serif" font-size="13" lengthAdjust="spacing" textLength="97.6079" x="215.0728" y="294.5859">List[Repository]</text></g><g class="message" data-participant-1="CLI" data-participant-2="InstallUC"><polygon fill="#181818" points="732.2393,324.6387,742.2393,328.6387,732.2393,332.6387,736.2393,328.6387" style="stroke:#181818;stroke-width:1;"/><line style="stroke:#181818;stroke-width:1;" x1="198.0728" x2="738.2393" y1="328.6387" y2="328.6387"/><text fill="#000000" font-family="sans-serif" font-size="13" lengthAdjust="spacing" textLength="137.2617" x="205.0728" y="323.8965">execute(software_list)</text></g><g class="message" data-participant-1="InstallUC" data-participant-2="BrewSvc"><polygon fill="#181818" points="1237.3984,353.9492,1247.3984,357.9492,1237.3984,361.9492,1241.3984,357.9492" style="stroke:#181818;stroke-width:1;"/><line style="stroke:#181818;stroke-width:1;" x1="744.2393" x2="1243.3984" y1="357.9492" y2="357.9492"/><text fill="#000000" font-family="sans-serif" font-size="13" lengthAdjust="spacing" textLength="100.4771" x="751.2393" y="353.207">install(software)</text></g><g class="message" data-participant-1="BrewSvc" data-participant-2="Brew"><polygon fill="#181818" points="1823.335,383.2598,1833.335,387.2598,1823.335,391.2598,1827.335,387.2598" style="stroke:#181818;stroke-width:1;"/><line style="stroke:#181818;stroke-width:1;" x1="1249.3984" x2="1829.335" y1="387.2598" y2="387.2598"/><text fill="#000000" font-family="sans-serif" font-size="13" lengthAdjust="spacing" textLength="137.5981" x="1256.3984" y="382.5176">brew install {package}</text></g><g class="message" data-participant-1="Brew" data-participant-2="BrewSvc"><polygon fill="#181818" points="1260.3984,412.5703,1250.3984,416.5703,1260.3984,420.5703,1256.3984,416.5703" style="stroke:#181818;stroke-width:1;"/><line style="stroke:#181818;stroke-width:1;stroke-dasharray:2,2;" x1="1254.3984" x2="1834.335" y1="416.5703" y2="416.5703"/><text fill="#000000" font-family="sans-serif" font-size="13" lengthAdjust="spacing" textLength="109.8525" x="1266.3984" y="411.8281">installation result</text></g><g class="message" data-participant-1="BrewSvc" data-participant-2="InstallUC"><polygon fill="#181818" points="755.2393,441.8809,745.2393,445.8809,755.2393,449.8809,751.2393,445.8809" style="stroke:#181818;stroke-width:1;"/><line style="stroke:#181818;stroke-width:1;stroke-dasharray:2,2;" x1="749.2393" x2="1248.3984" y1="445.8809" y2="445.8809"/><text fill="#000000" font-family="sans-serif" font-size="13" lengthAdjust="spacing" textLength="76.7749" x="761.2393" y="441.1387">InstallResult</text></g><g class="message" data-participant-1="InstallUC" data-participant-2="GitInstall"><polygon fill="#181818" points="1527.77,471.1914,1537.77,475.1914,1527.77,479.1914,1531.77,475.1914" style="stroke:#181818;stroke-width:1;"/><line style="stroke:#181818;stroke-width:1;" x1="744.2393" x2="1533.77" y1="475.1914" y2="475.1914"/><text fill="#000000" font-family="sans-serif" font-size="13" lengthAdjust="spacing" textLength="124.4141" x="751.2393" y="470.4492">setup_git_and_ssh()</text></g><g class="message" data-participant-1="GitInstall" data-participant-2="Git"><polygon fill="#181818" points="1740.3853,500.502,1750.3853,504.502,1740.3853,508.502,1744.3853,504.502" style="stroke:#181818;stroke-width:1;"/><line style="stroke:#181818;stroke-width:1;" x1="1539.77" x2="1746.3853" y1="504.502" y2="504.502"/><text fill="#000000" font-family="sans-serif" font-size="13" lengthAdjust="spacing" textLength="118.3203" x="1546.77" y="499.7598">git config --global</text></g><g class="message" data-participant-1="Git" data-participant-2="GitInstall"><polygon fill="#181818" points="1550.77,529.8125,1540.77,533.8125,1550.77,537.8125,1546.77,533.8125" style="stroke:#181818;stroke-width:1;"/><line style="stroke:#181818;stroke-width:1;stroke-dasharray:2,2;" x1="1544.77" x2="1751.3853" y1="533.8125" y2="533.8125"/><text fill="#000000" font-family="sans-serif" font-size="13" lengthAdjust="spacing" textLength="48.5088" x="1556.77" y="529.0703">success</text></g><g class="message" data-participant-1="GitInstall" data-participant-2="GitInstall"><line style="stroke:#181818;stroke-width:1;" x1="1539.77" x2="1581.77" y1="563.123" y2="563.123"/><line style="stroke:#181818;stroke-width:1;" x1="1581.77" x2="1581.77" y1="563.123" y2="576.123"/><line style="stroke:#181818;stroke-width:1;" x1="1540.77" x2="1581.77" y1="576.123" y2="576.123"/><polygon fill="#181818" points="1550.77,572.123,1540.77,576.123,1550.77,580.123,1546.77,576.123" style="stroke:#181818;stroke-width:1;"/><text fill="#000000" font-family="sans-serif" font-size="13" lengthAdjust="spacing" textLength="119.6724" x="1546.77" y="558.3809">generate_ssh_key()</text></g><g class="message" data-participant-1="GitInstall" data-participant-2="Git"><polygon fill="#181818" points="1740.3853,601.4336,1750.3853,605.4336,1740.3853,609.4336,1744.3853,605.4336" style="stroke:#181818;stroke-width:1;"/><line style="stroke:#181818;stroke-width:1;" x1="1539.77" x2="1746.3853" y1="605.4336" y2="605.4336"/><text fill="#000000" font-family="sans-serif" font-size="13" lengthAdjust="spacing" textLength="151.0298" x="1546.77" y="600.6914">ssh-keygen -t ed25519</text></g><g class="message" data-participant-1="Git" data-participant-2="GitInstall"><polygon fill="#181818" points="1550.77,630.7441,1540.77,634.7441,1550.77,638.7441,1546.77,634.7441" style="stroke:#181818;stroke-width:1;"/><line style="stroke:#181818;stroke-width:1;stroke-dasharray:2,2;" x1="1544.77" x2="1751.3853" y1="634.7441" y2="634.7441"/><text fill="#000000" font-family="sans-serif" font-size="13" lengthAdjust="spacing" textLength="89.1909" x="1556.77" y="630.002">key generated</text></g><g class="message" data-participant-1="GitInstall" data-participant-2="InstallUC"><polygon fill="#181818" points="755.2393,660.0547,745.2393,664.0547,755.2393,668.0547,751.2393,664.0547" style="stroke:#181818;stroke-width:1;"/><line style="stroke:#181818;stroke-width:1;stroke-dasharray:2,2;" x1="749.2393" x2="1538.77" y1="664.0547" y2="664.0547"/><text fill="#000000" font-family="sans-serif" font-size="13" lengthAdjust="spacing" textLength="92.1489" x="761.2393" y="659.3125">GitSetupResult</text></g><g class="message" data-participant-1="InstallUC" data-participant-2="CLI"><polygon fill="#181818" points="209.0728,689.3652,199.0728,693.3652,209.0728,697.3652,205.0728,693.3652" style="stroke:#181818;stroke-width:1;"/><line style="stroke:#181818;stroke-width:1;stroke-dasharray:2,2;" x1="203.0728" x2="743.2393" y1="693.3652" y2="693.3652"/><text fill="#000000" font-family="sans-serif" font-size="13" lengthAdjust="spacing" textLength="124.9727" x="215.0728" y="688.623">Overall InstallResult</text></g><g class="message" data-participant-1="CLI" data-participant-2="SetupUC"><polygon fill="#181818" points="540.5674,718.6758,550.5674,722.6758,540.5674,726.6758,544.5674,722.6758" style="stroke:#181818;stroke-width:1;"/><line style="stroke:#181818;stroke-width:1;" x1="198.0728" x2="546.5674" y1="722.6758" y2="722.6758"/><text fill="#000000" font-family="sans-serif" font-size="13" lengthAdjust="spacing" textLength="206.8003" x="205.0728" y="717.9336">execute(repositories, dev_folder)</text></g><g class="message" data-participant-1="SetupUC" data-participant-2="GitSvc"><polygon fill="#181818" points="1087.7642,747.9863,1097.7642,751.9863,1087.7642,755.9863,1091.7642,751.9863" style="stroke:#181818;stroke-width:1;"/><line style="stroke:#181818;stroke-width:1;" x1="552.5674" x2="1093.7642" y1="751.9863" y2="751.9863"/><text fill="#000000" font-family="sans-serif" font-size="13" lengthAdjust="spacing" textLength="177.9883" x="559.5674" y="747.2441">clone_repository(repo, path)</text></g><g class="message" data-participant-1="GitSvc" data-participant-2="Git"><polygon fill="#181818" points="1740.3853,777.2969,1750.3853,781.2969,1740.3853,785.2969,1744.3853,781.2969" style="stroke:#181818;stroke-width:1;"/><line style="stroke:#181818;stroke-width:1;" x1="1099.7642" x2="1746.3853" y1="781.2969" y2="781.2969"/><text fill="#000000" font-family="sans-serif" font-size="13" lengthAdjust="spacing" textLength="125.125" x="1106.7642" y="776.5547">git clone {url} {path}</text></g><g class="message" data-participant-1="Git" data-participant-2="GitSvc"><polygon fill="#181818" points="1110.7642,806.6074,1100.7642,810.6074,1110.7642,814.6074,1106.7642,810.6074" style="stroke:#181818;stroke-width:1;"/><line style="stroke:#181818;stroke-width:1;stroke-dasharray:2,2;" x1="1104.7642" x2="1751.3853" y1="810.6074" y2="810.6074"/><text fill="#000000" font-family="sans-serif" font-size="13" lengthAdjust="spacing" textLength="73.7026" x="1116.7642" y="805.8652">clone result</text></g><g class="message" data-participant-1="GitSvc" data-participant-2="SetupUC"><polygon fill="#181818" points="563.5674,835.918,553.5674,839.918,563.5674,843.918,559.5674,839.918" style="stroke:#181818;stroke-width:1;"/><line style="stroke:#181818;stroke-width:1;stroke-dasharray:2,2;" x1="557.5674" x2="1098.7642" y1="839.918" y2="839.918"/><text fill="#000000" font-family="sans-serif" font-size="13" lengthAdjust="spacing" textLength="74.8262" x="569.5674" y="835.1758">CloneResult</text></g><path d="M446.1362,854.918 L508.2749,854.918 L508.2749,862.2285 L498.2749,872.2285 L446.1362,872.2285 L446.1362,854.918" fill="#EEEEEE" style="stroke:#000000;stroke-width:1.5;"/><rect fill="none" height="134.5527" style="stroke:#000000;stroke-width:1.5;" width="1345.7563" x="446.1362" y="854.918"/><text fill="#000000" font-family="sans-serif" font-size="13" font-weight="bold" lengthAdjust="spacing" textLength="17.1387" x="461.1362" y="868.4863">alt</text><text fill="#000000" font-family="sans-serif" font-size="11" font-weight="bold" lengthAdjust="spacing" textLength="153.522" x="523.2749" y="867.5527">[SSH repositories detected]</text><g class="message" data-participant-1="SetupUC" data-participant-2="GitInstall"><polygon fill="#181818" points="1527.77,889.5391,1537.77,893.5391,1527.77,897.5391,1531.77,893.5391" style="stroke:#181818;stroke-width:1;"/><line style="stroke:#181818;stroke-width:1;" x1="552.5674" x2="1533.77" y1="893.5391" y2="893.5391"/><text fill="#000000" font-family="sans-serif" font-size="13" lengthAdjust="spacing" textLength="174.313" x="559.5674" y="888.7969">setup_ssh_if_needed(repos)</text></g><g class="message" data-participant-1="GitInstall" data-participant-2="Git"><polygon fill="#181818" points="1740.3853,918.8496,1750.3853,922.8496,1740.3853,926.8496,1744.3853,922.8496" style="stroke:#181818;stroke-width:1;"/><line style="stroke:#181818;stroke-width:1;" x1="1539.77" x2="1746.3853" y1="922.8496" y2="922.8496"/><text fill="#000000" font-family="sans-serif" font-size="13" lengthAdjust="spacing" textLength="145.1138" x="1546.77" y="918.1074">ssh -T git@github.com</text></g><g class="message" data-participant-1="Git" data-participant-2="GitInstall"><polygon fill="#181818" points="1550.77,948.1602,1540.77,952.1602,1550.77,956.1602,1546.77,952.1602" style="stroke:#181818;stroke-width:1;"/><line style="stroke:#181818;stroke-width:1;stroke-dasharray:2,2;" x1="1544.77" x2="1751.3853" y1="952.1602" y2="952.1602"/><text fill="#000000" font-family="sans-serif" font-size="13" lengthAdjust="spacing" textLength="91.2539" x="1556.77" y="947.418">SSH test result</text></g><g class="message" data-participant-1="GitInstall" data-participant-2="SetupUC"><polygon fill="#181818" points="563.5674,977.4707,553.5674,981.4707,563.5674,985.4707,559.5674,981.4707" style="stroke:#181818;stroke-width:1;"/><line style="stroke:#181818;stroke-width:1;stroke-dasharray:2,2;" x1="557.5674" x2="1538.77" y1="981.4707" y2="981.4707"/><text fill="#000000" font-family="sans-serif" font-size="13" lengthAdjust="spacing" textLength="62.3848" x="569.5674" y="976.7285">SSH ready</text></g><g class="message" data-participant-1="SetupUC" data-participant-2="CLI"><polygon fill="#181818" points="209.0728,1013.7813,199.0728,1017.7813,209.0728,1021.7813,205.0728,1017.7813" style="stroke:#181818;stroke-width:1;"/><line style="stroke:#181818;stroke-width:1;stroke-dasharray:2,2;" x1="203.0728" x2="551.5674" y1="1017.7813" y2="1017.7813"/><text fill="#000000" font-family="sans-serif" font-size="13" lengthAdjust="spacing" textLength="74.1343" x="215.0728" y="1013.0391">SetupResult</text></g><path d="M17,1032.7813 L79.1387,1032.7813 L79.1387,1040.0918 L69.1387,1050.0918 L17,1050.0918 L17,1032.7813" fill="#EEEEEE" style="stroke:#000000;stroke-width:1.5;"/><rect fill="none" height="251.7949" style="stroke:#000000;stroke-width:1.5;" width="1971.7041" x="17" y="1032.7813"/><text fill="#000000" font-family="sans-serif" font-size="13" font-weight="bold" lengthAdjust="spacing" textLength="17.1387" x="32" y="1046.3496">alt</text><text fill="#000000" font-family="sans-serif" font-size="11" font-weight="bold" lengthAdjust="spacing" textLength="111.6436" x="94.1387" y="1045.416">[not --skip-npmrc]</text><g class="message" data-participant-1="CLI" data-participant-2="NPMrcUC"><polygon fill="#181818" points="920.8726,1067.4023,930.8726,1071.4023,920.8726,1075.4023,924.8726,1071.4023" style="stroke:#181818;stroke-width:1;"/><line style="stroke:#181818;stroke-width:1;" x1="198.0728" x2="926.8726" y1="1071.4023" y2="1071.4023"/><text fill="#000000" font-family="sans-serif" font-size="13" lengthAdjust="spacing" textLength="57.7446" x="205.0728" y="1066.6602">execute()</text></g><g class="message" data-participant-1="NPMrcUC" data-participant-2="NPMSvc"><polygon fill="#181818" points="1390.2388,1096.7129,1400.2388,1100.7129,1390.2388,1104.7129,1394.2388,1100.7129" style="stroke:#181818;stroke-width:1;"/><line style="stroke:#181818;stroke-width:1;" x1="932.8726" x2="1396.2388" y1="1100.7129" y2="1100.7129"/><text fill="#000000" font-family="sans-serif" font-size="13" lengthAdjust="spacing" textLength="115.3052" x="939.8726" y="1095.9707">configure_npmrc()</text></g><g class="message" data-participant-1="NPMSvc" data-participant-2="User"><polygon fill="#181818" points="56.1826,1126.0234,46.1826,1130.0234,56.1826,1134.0234,52.1826,1130.0234" style="stroke:#181818;stroke-width:1;"/><line style="stroke:#181818;stroke-width:1;" x1="50.1826" x2="1401.2388" y1="1130.0234" y2="1130.0234"/><text fill="#000000" font-family="sans-serif" font-size="13" lengthAdjust="spacing" textLength="156.6665" x="62.1826" y="1125.2813">prompt for GitHub token</text></g><g class="message" data-participant-1="User" data-participant-2="NPMSvc"><polygon fill="#181818" points="1390.2388,1155.334,1400.2388,1159.334,1390.2388,1163.334,1394.2388,1159.334" style="stroke:#181818;stroke-width:1;"/><line style="stroke:#181818;stroke-width:1;" x1="45.1826" x2="1396.2388" y1="1159.334" y2="1159.334"/><text fill="#000000" font-family="sans-serif" font-size="13" lengthAdjust="spacing" textLength="139.3374" x="52.1826" y="1154.5918">personal access token</text></g><g class="message" data-participant-1="NPMSvc" data-participant-2="FS"><polygon fill="#181818" points="1921.7407,1184.6445,1931.7407,1188.6445,1921.7407,1192.6445,1925.7407,1188.6445" style="stroke:#181818;stroke-width:1;"/><line style="stroke:#181818;stroke-width:1;" x1="1402.2388" x2="1927.7407" y1="1188.6445" y2="1188.6445"/><text fill="#000000" font-family="sans-serif" font-size="13" lengthAdjust="spacing" textLength="86.6074" x="1409.2388" y="1183.9023">write /.npmrc</text></g><g class="message" data-participant-1="FS" data-participant-2="NPMSvc"><polygon fill="#181818" points="1413.2388,1213.9551,1403.2388,1217.9551,1413.2388,1221.9551,1409.2388,1217.9551" style="stroke:#181818;stroke-width:1;"/><line style="stroke:#181818;stroke-width:1;stroke-dasharray:2,2;" x1="1407.2388" x2="1932.7407" y1="1217.9551" y2="1217.9551"/><text fill="#000000" font-family="sans-serif" font-size="13" lengthAdjust="spacing" textLength="67.7803" x="1419.2388" y="1213.2129">file written</text></g><g class="message" data-participant-1="NPMSvc" data-participant-2="NPMrcUC"><polygon fill="#181818" points="943.8726,1243.2656,933.8726,1247.2656,943.8726,1251.2656,939.8726,1247.2656" style="stroke:#181818;stroke-width:1;"/><line style="stroke:#181818;stroke-width:1;stroke-dasharray:2,2;" x1="937.8726" x2="1401.2388" y1="1247.2656" y2="1247.2656"/><text fill="#000000" font-family="sans-serif" font-size="13" lengthAdjust="spacing" textLength="80.4692" x="949.8726" y="1242.5234">ConfigResult</text></g><g class="message" data-participant-1="NPMrcUC" data-participant-2="CLI"><polygon fill="#181818" points="209.0728,1272.5762,199.0728,1276.5762,209.0728,1280.5762,205.0728,1276.5762" style="stroke:#181818;stroke-width:1;"/><line style="stroke:#181818;stroke-width:1;stroke-dasharray:2,2;" x1="203.0728" x2="931.8726" y1="1276.5762" y2="1276.5762"/><text fill="#000000" font-family="sans-serif" font-size="13" lengthAdjust="spacing" textLength="83.9795" x="215.0728" y="1271.834">NPMRCResult</text></g><g class="message" data-participant-1="CLI" data-participant-2="CLI"><line style="stroke:#181818;stroke-width:1;" x1="198.0728" x2="240.0728" y1="1312.8867" y2="1312.8867"/><line style="stroke:#181818;stroke-width:1;" x1="240.0728" x2="240.0728" y1="1312.8867" y2="1325.8867"/><line style="stroke:#181818;stroke-width:1;" x1="199.0728" x2="240.0728" y1="1325.8867" y2="1325.8867"/><polygon fill="#181818" points="209.0728,1321.8867,199.0728,1325.8867,209.0728,1329.8867,205.0728,1325.8867" style="stroke:#181818;stroke-width:1;"/><text fill="#000000" font-family="sans-serif" font-size="13" lengthAdjust="spacing" textLength="144.8853" x="205.0728" y="1308.1445">print_setup_summary()</text></g><g class="message" data-participant-1="CLI" data-participant-2="User"><polygon fill="#181818" points="56.1826,1366.5078,46.1826,1370.5078,56.1826,1374.5078,52.1826,1370.5078" style="stroke:#181818;stroke-width:1;"/><line style="stroke:#181818;stroke-width:1;" x1="50.1826" x2="197.0728" y1="1370.5078" y2="1370.5078"/><text fill="#000000" font-family="sans-serif" font-size="13" lengthAdjust="spacing" textLength="122.7646" x="62.1826" y="1350.4551">&#9989; Setup complete!</text><text fill="#000000" font-family="sans-serif" font-size="13" lengthAdjust="spacing" textLength="128.8901" x="62.1826" y="1365.7656">&#128202; Results summary</text></g><path d="M5,1383.5078 L5,1484.5078 L238,1484.5078 L238,1393.5078 L228,1383.5078 L5,1383.5078" fill="#FEFFDD" style="stroke:#181818;stroke-width:0.5;"/><path d="M228,1383.5078 L228,1393.5078 L238,1393.5078 L228,1383.5078" fill="#FEFFDD" style="stroke:#181818;stroke-width:0.5;"/><text fill="#000000" font-family="sans-serif" font-size="13" font-weight="bold" lengthAdjust="spacing" textLength="94.7451" x="11" y="1401.0762">Dry Run Mode</text><text fill="#000000" font-family="sans-serif" font-size="13" lengthAdjust="spacing" textLength="183.7075" x="11" y="1416.3867">When --dry-run flag is used:</text><text fill="#000000" font-family="sans-serif" font-size="13" lengthAdjust="spacing" textLength="212.6338" x="11" y="1431.6973">&#8226; No actual operations performed</text><text fill="#000000" font-family="sans-serif" font-size="13" lengthAdjust="spacing" textLength="182.5903" x="11" y="1447.0078">&#8226; Shows what would be done</text><text fill="#000000" font-family="sans-serif" font-size="13" lengthAdjust="spacing" textLength="157.3965" x="11" y="1462.3184">&#8226; Validates configuration</text><text fill="#000000" font-family="sans-serif" font-size="13" lengthAdjust="spacing" textLength="124.5347" x="11" y="1477.6289">&#8226; Tests connectivity</text><path d="M475,1495.3711 L475,1581.3711 L1177,1581.3711 L1177,1505.3711 L1167,1495.3711 L475,1495.3711" fill="#FEFFDD" style="stroke:#181818;stroke-width:0.5;"/><path d="M1167,1495.3711 L1167,1505.3711 L1177,1505.3711 L1167,1495.3711" fill="#FEFFDD" style="stroke:#181818;stroke-width:0.5;"/><text fill="#000000" font-family="sans-serif" font-size="13" font-weight="bold" lengthAdjust="spacing" textLength="98.6299" x="729.6589" y="1512.9395">Error Handling</text><text fill="#000000" font-family="sans-serif" font-size="13" lengthAdjust="spacing" textLength="143.9775" x="729.6589" y="1528.25">&#8226; Graceful degradation</text><text fill="#000000" font-family="sans-serif" font-size="13" lengthAdjust="spacing" textLength="183.8091" x="729.6589" y="1543.5605">&#8226; Continue on partial failures</text><text fill="#000000" font-family="sans-serif" font-size="13" lengthAdjust="spacing" textLength="145.0947" x="729.6589" y="1558.8711">&#8226; Clear error messages</text><text fill="#000000" font-family="sans-serif" font-size="13" lengthAdjust="spacing" textLength="116.0732" x="729.6589" y="1574.1816">&#8226; Preserve context</text><path d="M1497,1591.9238 L1497,1677.9238 L1794,1677.9238 L1794,1601.9238 L1784,1591.9238 L1497,1591.9238" fill="#FEFFDD" style="stroke:#181818;stroke-width:0.5;"/><path d="M1784,1591.9238 L1784,1601.9238 L1794,1601.9238 L1784,1591.9238" fill="#FEFFDD" style="stroke:#181818;stroke-width:0.5;"/><text fill="#000000" font-family="sans-serif" font-size="13" font-weight="bold" lengthAdjust="spacing" textLength="107.5483" x="1561.0908" y="1609.4922">SSH Automation</text><text fill="#000000" font-family="sans-serif" font-size="13" lengthAdjust="spacing" textLength="158.6978" x="1561.0908" y="1624.8027">&#8226; Detect SSH repositories</text><text fill="#000000" font-family="sans-serif" font-size="13" lengthAdjust="spacing" textLength="160.7671" x="1561.0908" y="1640.1133">&#8226; Generate Ed25519 keys</text><text fill="#000000" font-family="sans-serif" font-size="13" lengthAdjust="spacing" textLength="140.9624" x="1561.0908" y="1655.4238">&#8226; Configure SSH agent</text><text fill="#000000" font-family="sans-serif" font-size="13" lengthAdjust="spacing" textLength="159.7515" x="1561.0908" y="1670.7344">&#8226; Test GitHub connection</text><!--SRC=[RLPDRnit4BtlhvZwajZmkcY17Af3qLIsuW1sOcYJ5aLT2DJkI2BC9RSaLueGkEYbbrnpBL2WFos_e3-Xmw_za6p0WCrvV9nvyuPSowr0cDwyXfbGEoZmznPbYN39sLgp-buQj6sJeznohMIDqiBL1onRovNqMxACbLPfU6zGPmtJbfUyOGGx8T8JOCQHZmDpR9JXj6a_LNB5rmNgBIynWFtA65-u5BfD70sTDMKcRF31zzFnZjVIM2P4eLPsnpGEyJ5qk2ESssfyStSxdmutq88k3-6lkBtRsusImznfiTYMO-2F6dSfZI7Mhn-2_TapBaP8MZm2qacfnF7vSJMhc6LBgW1EVdbvUmEEqtYC-_U82rAhwEzny5hLkAHKkvp7OSSBnTvOh3rYLcIPCmBatplE2HovvrxcUONRVAL4HRW_lgP_ikmP9FsPDzQDOXMNwypvqb7vu0G4BI_qm0ZFJxCGSoXNsWGqiWg6c8izgqNcPSW7N1ra3qwiZYTbViED_RLtwcykoTJ8P2AVR4goCzO4q4y8FZSHln14Tffr20UF1fW03wiT-3IBeOIQWEj0mi77XfKFR8sF7kSJFkGA8ceqhR0zspZ7-ESyW5nn3PQSKQPOzONwwHedthiijdUnvdR1PBKmPaCDwUCHFG42G9dqNGkrPCB1V4eZkhOiqPXZYWwnHeda4NHdBHvm__Hv5CmfI638BM3rxOiNttptv8c4wZYh4TLOBJVQuHOASWqKIOPvkoKMsdaaR6-YA6SqJBovUhiCNNiED1YBC2MdMOJ60dshIw4aziEmzxlFeM5supM91khrTtZus6hnw2naDuz3GNhAP9j4CKnqwW1zOTVKT3V_nVLeu82lG29M92WJzZXSeSNIoGtqCwxim5YkoNor26H1dbE_w-cUG_xEbVe3_MxQvKMfwWG-whjBogAngTf3qc7LeG1MxJEKLTRt8ZL-P8ndu2_nyNtcTP3AfM4UU9FBfjQbFpDQ8RunlHL2cN4v8aAFqZkry2GzCFRRtRuJQBIg6mihUfUfgkjs2LOzeFJOT3ydnWQrKP89O7xu1iYUTLPCOAUvHRgmB_hiPuLN8J6jt6lWOFQ0O5XX46RUozuLcVJq0aQ0LvpkfhQkcTvtxu63DPfBkuX62N7t70H4aE7Btt-5xf1iTIF8Tr_To__- -Vm90hs1k37Bg3i8YaROaP-7hncNtTdP9Stjl9LmgoeyE_EBFs_SpP9NUfzhYgm4MmCtqDBLEV60Bt_-2syKAMfR4bOr67nWdDZKb3gQty6AZTePs6sOXPrgHGLBX8h6h0FyH7SolL0qEEN8Kod-ZcpiOvAcYc-vzJvrTiDXMT6sv-ah9HHtfJLvn0yolRUnFCVwIhCILwsWQQNlm6fy9FNGSjaIimJ_FK15hXWNP4lJWmGo3UWFgCbOz6JrmJj2qfSBkhmjVh1FfjmFfCywfkp6yMLhLUrp6gHywU-Le_kcBodUyt0L7WHt-PjXJM6mF04bA-r8uZH8IMYIeylvVm00]--></g></svg>