<svg xmlns="http://www.w3.org/2000/svg" xmlns:xlink="http://www.w3.org/1999/xlink" contentStyleType="text/css" data-diagram-type="ACTIVITY" height="2180px" preserveAspectRatio="none" style="width:1313px;height:2180px;background:#FFFFFF;" version="1.1" viewBox="0 0 1313 2180" width="1313px" zoomAndPan="magnify"><title>SSH Setup Workflow</title><defs/><g><g class="title" data-source-line="2"><text fill="#000000" font-family="sans-serif" font-size="14" font-weight="bold" lengthAdjust="spacing" textLength="144.6895" x="582.6943" y="33.5352">SSH Setup Workflow</text><text fill="#000000" font-family="sans-serif" font-size="14" font-weight="bold" lengthAdjust="spacing" textLength="355.4482" x="477.3149" y="50.0234">Automatic SSH Key Generation and Configuration</text></g><ellipse cx="657.1943" cy="73.9766" fill="#222222" rx="10" ry="10" style="stroke:#222222;stroke-width:1;"/><path d="M780.5869,108.3877 L780.5869,117.043 L760.5869,121.043 L780.5869,125.043 L780.5869,133.6982 A0,0 0 0 0 780.5869,133.6982 L1012.1641,133.6982 A0,0 0 0 0 1012.1641,133.6982 L1012.1641,118.3877 L1002.1641,108.3877 L780.5869,108.3877 A0,0 0 0 0 780.5869,108.3877" fill="#FEFFDD" style="stroke:#181818;stroke-width:0.5;"/><path d="M1002.1641,108.3877 L1002.1641,118.3877 L1012.1641,118.3877 L1002.1641,108.3877" fill="#FEFFDD" style="stroke:#181818;stroke-width:0.5;"/><text fill="#000000" font-family="sans-serif" font-size="13" lengthAdjust="spacing" textLength="210.5771" x="786.5869" y="125.9561">Look for git@github.com: pattern</text><rect fill="#F1F1F1" height="34.1328" rx="12.5" ry="12.5" style="stroke:#181818;stroke-width:0.5;" width="206.7852" x="553.8018" y="103.9766"/><text fill="#000000" font-family="sans-serif" font-size="12" lengthAdjust="spacing" textLength="186.7852" x="563.8018" y="125.5781">Check repositories for SSH URLs</text><path d="M10,148.1094 L10,709.2891 L582.0464,709.2891 L582.0464,158.1094 L572.0464,148.1094 L10,148.1094" fill="#FEFFDD" style="stroke:#181818;stroke-width:0.5;"/><path d="M572.0464,148.1094 L572.0464,158.1094 L582.0464,158.1094 L572.0464,148.1094" fill="#FEFFDD" style="stroke:#181818;stroke-width:0.5;"/><text fill="#000000" font-family="sans-serif" font-size="13" font-weight="bold" lengthAdjust="spacing" textLength="131.3457" x="16" y="165.6777">SSH Key Generation</text><text fill="#000000" font-family="sans-serif" font-size="13" lengthAdjust="spacing" textLength="551.0464" x="16" y="180.9883">Command: ssh-keygen -t ed25519 -C "user@example.com" -f /.ssh/id_ed25519 -N ""</text><text fill="#000000" font-family="sans-serif" font-size="13" lengthAdjust="spacing" textLength="53.6948" x="16" y="196.2988">Options:</text><text fill="#000000" font-family="sans-serif" font-size="13" lengthAdjust="spacing" textLength="352.1426" x="16" y="211.6094">&#8226; -t ed25519: Use Ed25519 algorithm (modern, secure)</text><text fill="#000000" font-family="sans-serif" font-size="13" lengthAdjust="spacing" textLength="254.6997" x="16" y="226.9199">&#8226; -C "email": Comment for identification</text><text fill="#000000" font-family="sans-serif" font-size="13" lengthAdjust="spacing" textLength="212.5132" x="16" y="242.2305">&#8226; -f path: Specify key file location</text><text fill="#000000" font-family="sans-serif" font-size="13" lengthAdjust="spacing" textLength="283.5879" x="16" y="257.541">&#8226; -N "": No passphrase (automation-friendly)</text><text fill="#000000" font-family="sans-serif" font-size="13" lengthAdjust="spacing" textLength="4.1133" x="16" y="272.8516">&#160;</text><text fill="#000000" font-family="sans-serif" font-size="13" font-weight="bold" lengthAdjust="spacing" textLength="110.6016" x="16" y="288.1621">SSH Agent Setup</text><text fill="#000000" font-family="sans-serif" font-size="13" lengthAdjust="spacing" textLength="75.4229" x="16" y="303.4727">Commands:</text><text fill="#000000" font-family="sans-serif" font-size="13" lengthAdjust="spacing" textLength="180.0005" x="16" y="318.7832">1. ssh-agent -s (start agent)</text><text fill="#000000" font-family="sans-serif" font-size="13" lengthAdjust="spacing" textLength="248.8408" x="16" y="334.0938">2. ssh-add /.ssh/id_ed25519 (add key)</text><text fill="#000000" font-family="sans-serif" font-size="13" lengthAdjust="spacing" textLength="54.1709" x="16" y="349.4043">Benefits:</text><text fill="#000000" font-family="sans-serif" font-size="13" lengthAdjust="spacing" textLength="210.0376" x="16" y="364.7148">&#8226; Keys available to Git operations</text><text fill="#000000" font-family="sans-serif" font-size="13" lengthAdjust="spacing" textLength="221.311" x="16" y="380.0254">&#8226; No repeated passphrase prompts</text><text fill="#000000" font-family="sans-serif" font-size="13" lengthAdjust="spacing" textLength="152.0073" x="16" y="395.3359">&#8226; Works with SSH config</text><text fill="#000000" font-family="sans-serif" font-size="13" lengthAdjust="spacing" textLength="4.1133" x="16" y="410.6465">&#160;</text><text fill="#000000" font-family="sans-serif" font-size="13" font-weight="bold" lengthAdjust="spacing" textLength="159.7705" x="16" y="425.957">GitHub Connection Test</text><text fill="#000000" font-family="sans-serif" font-size="13" lengthAdjust="spacing" textLength="218.0229" x="16" y="441.2676">Command: ssh -T git@github.com</text><text fill="#000000" font-family="sans-serif" font-size="13" lengthAdjust="spacing" textLength="426.2451" x="16" y="456.5781">Success response: "Hi username! You've successfully authenticated,</text><text fill="#000000" font-family="sans-serif" font-size="13" lengthAdjust="spacing" textLength="267.376" x="16" y="471.8887">but GitHub does not provide shell access."</text><text fill="#000000" font-family="sans-serif" font-size="13" lengthAdjust="spacing" textLength="232.6924" x="16" y="487.1992">Return code: 1 (expected for GitHub)</text><text fill="#000000" font-family="sans-serif" font-size="13" lengthAdjust="spacing" textLength="4.1133" x="16" y="502.5098">&#160;</text><text fill="#000000" font-family="sans-serif" font-size="13" font-weight="bold" lengthAdjust="spacing" textLength="174.9414" x="16" y="517.8203">Manual Setup Instructions</text><text fill="#000000" font-family="sans-serif" font-size="13" lengthAdjust="spacing" textLength="290.4878" x="16" y="533.1309">1. Copy public key: cat /.ssh/id_ed25519.pub</text><text fill="#000000" font-family="sans-serif" font-size="13" lengthAdjust="spacing" textLength="329.2339" x="16" y="548.4414">2. Add to GitHub: https://github.com/settings/keys</text><text fill="#000000" font-family="sans-serif" font-size="13" lengthAdjust="spacing" textLength="141.3179" x="16" y="563.752">3. Click "New SSH key"</text><text fill="#000000" font-family="sans-serif" font-size="13" lengthAdjust="spacing" textLength="134.7227" x="16" y="579.0625">4. Paste key and save</text><text fill="#000000" font-family="sans-serif" font-size="13" lengthAdjust="spacing" textLength="270.207" x="16" y="594.373">5. Test connection: ssh -T git@github.com</text><text fill="#000000" font-family="sans-serif" font-size="13" lengthAdjust="spacing" textLength="4.1133" x="16" y="609.6836">&#160;</text><text fill="#000000" font-family="sans-serif" font-size="13" font-weight="bold" lengthAdjust="spacing" textLength="158.9199" x="16" y="624.9941">Security Considerations</text><text fill="#000000" font-family="sans-serif" font-size="13" lengthAdjust="spacing" textLength="229.2583" x="16" y="640.3047">&#8226; Ed25519 recommended by GitHub</text><text fill="#000000" font-family="sans-serif" font-size="13" lengthAdjust="spacing" textLength="301.6089" x="16" y="655.6152">&#8226; Keys stored in /.ssh/ with proper permissions</text><text fill="#000000" font-family="sans-serif" font-size="13" lengthAdjust="spacing" textLength="328.707" x="16" y="670.9258">&#8226; No passphrase for automation (user can add later)</text><text fill="#000000" font-family="sans-serif" font-size="13" lengthAdjust="spacing" textLength="206.686" x="16" y="686.2363">&#8226; Public key safe to display/copy</text><text fill="#000000" font-family="sans-serif" font-size="13" lengthAdjust="spacing" textLength="175.6841" x="16" y="701.5469">&#8226; Private key never exposed</text><polygon fill="#F1F1F1" points="594.0464,709.2891,720.3423,709.2891,732.3423,721.2891,720.3423,733.2891,594.0464,733.2891,582.0464,721.2891,594.0464,709.2891" style="stroke:#181818;stroke-width:0.5;"/><text fill="#000000" font-family="sans-serif" font-size="11" lengthAdjust="spacing" textLength="126.2959" x="594.0464" y="725.4463">SSH repositories found?</text><text fill="#000000" font-family="sans-serif" font-size="11" lengthAdjust="spacing" textLength="13.5835" x="568.4629" y="718.9688">no</text><text fill="#000000" font-family="sans-serif" font-size="11" lengthAdjust="spacing" textLength="17.4829" x="732.3423" y="718.9688">yes</text><rect fill="#F1F1F1" height="34.1328" rx="12.5" ry="12.5" style="stroke:#181818;stroke-width:0.5;" width="106.127" x="407.4824" y="743.2891"/><text fill="#000000" font-family="sans-serif" font-size="12" lengthAdjust="spacing" textLength="86.127" x="417.4824" y="764.8906">Skip SSH setup</text><ellipse cx="460.5459" cy="808.4219" fill="none" rx="11" ry="11" style="stroke:#222222;stroke-width:1;"/><ellipse cx="460.5459" cy="808.4219" fill="#222222" rx="6" ry="6" style="stroke:#222222;stroke-width:1;"/><rect fill="#F1F1F1" height="34.1328" rx="12.5" ry="12.5" style="stroke:#181818;stroke-width:0.5;" width="213.3359" x="747.1748" y="743.2891"/><text fill="#000000" font-family="sans-serif" font-size="12" lengthAdjust="spacing" textLength="193.3359" x="757.1748" y="764.8906">Check existing SSH configuration</text><rect fill="#F1F1F1" height="34.1328" rx="12.5" ry="12.5" style="stroke:#181818;stroke-width:0.5;" width="182.4805" x="762.6025" y="845.8994"/><text fill="#000000" font-family="sans-serif" font-size="12" lengthAdjust="spacing" textLength="162.4805" x="772.6025" y="867.501">Test GitHub SSH connection</text><polygon fill="#F1F1F1" points="791.9033,900.0322,915.7822,900.0322,927.7822,912.0322,915.7822,924.0322,791.9033,924.0322,779.9033,912.0322,791.9033,900.0322" style="stroke:#181818;stroke-width:0.5;"/><text fill="#000000" font-family="sans-serif" font-size="11" lengthAdjust="spacing" textLength="123.8789" x="791.9033" y="916.1895">Connection successful?</text><text fill="#000000" font-family="sans-serif" font-size="11" lengthAdjust="spacing" textLength="17.4829" x="762.4204" y="909.7119">yes</text><text fill="#000000" font-family="sans-serif" font-size="11" lengthAdjust="spacing" textLength="13.5835" x="927.7822" y="909.7119">no</text><rect fill="#F1F1F1" height="34.1328" rx="12.5" ry="12.5" style="stroke:#181818;stroke-width:0.5;" width="135.2305" x="699.1743" y="934.0322"/><text fill="#000000" font-family="sans-serif" font-size="12" lengthAdjust="spacing" textLength="115.2305" x="709.1743" y="955.6338">SSH setup complete</text><ellipse cx="766.7896" cy="999.165" fill="none" rx="11" ry="11" style="stroke:#222222;stroke-width:1;"/><ellipse cx="766.7896" cy="999.165" fill="#222222" rx="6" ry="6" style="stroke:#222222;stroke-width:1;"/><rect fill="#F1F1F1" height="34.1328" rx="12.5" ry="12.5" style="stroke:#181818;stroke-width:0.5;" width="172.9824" x="854.4048" y="934.0322"/><text fill="#000000" font-family="sans-serif" font-size="12" lengthAdjust="spacing" textLength="152.9824" x="864.4048" y="955.6338">Show SSH troubleshooting</text><rect fill="#F1F1F1" height="34.1328" rx="12.5" ry="12.5" style="stroke:#181818;stroke-width:0.5;" width="137.1934" x="872.2993" y="988.165"/><text fill="#000000" font-family="sans-serif" font-size="12" lengthAdjust="spacing" textLength="117.1934" x="882.2993" y="1009.7666">Continue with setup</text><polygon fill="#F1F1F1" points="789.9214,797.4219,917.7642,797.4219,929.7642,809.4219,917.7642,821.4219,789.9214,821.4219,777.9214,809.4219,789.9214,797.4219" style="stroke:#181818;stroke-width:0.5;"/><text fill="#000000" font-family="sans-serif" font-size="11" lengthAdjust="spacing" textLength="17.4829" x="857.8428" y="832.0566">yes</text><text fill="#000000" font-family="sans-serif" font-size="11" lengthAdjust="spacing" textLength="127.8428" x="789.9214" y="813.5791">SSH already configured?</text><polygon fill="#F1F1F1" points="853.8428,1042.2979,865.8428,1054.2979,853.8428,1066.2979,841.8428,1054.2979,853.8428,1042.2979" style="stroke:#181818;stroke-width:0.5;"/><rect fill="#F1F1F1" height="34.1328" rx="12.5" ry="12.5" style="stroke:#181818;stroke-width:0.5;" width="309.957" x="698.8643" y="1086.2979"/><text fill="#000000" font-family="sans-serif" font-size="12" lengthAdjust="spacing" textLength="289.957" x="708.8643" y="1107.8994">Prompt user: "SSH setup needed. Configure now?"</text><polygon fill="#F1F1F1" points="814.4431,1140.4307,893.2424,1140.4307,905.2424,1152.4307,893.2424,1164.4307,814.4431,1164.4307,802.4431,1152.4307,814.4431,1140.4307" style="stroke:#181818;stroke-width:0.5;"/><text fill="#000000" font-family="sans-serif" font-size="11" lengthAdjust="spacing" textLength="78.7993" x="814.4431" y="1156.5879">User confirms?</text><text fill="#000000" font-family="sans-serif" font-size="11" lengthAdjust="spacing" textLength="13.5835" x="788.8596" y="1150.1104">no</text><text fill="#000000" font-family="sans-serif" font-size="11" lengthAdjust="spacing" textLength="17.4829" x="905.2424" y="1150.1104">yes</text><rect fill="#F1F1F1" height="34.1328" rx="12.5" ry="12.5" style="stroke:#181818;stroke-width:0.5;" width="195.4004" x="543.6094" y="1174.4307"/><text fill="#000000" font-family="sans-serif" font-size="12" lengthAdjust="spacing" textLength="175.4004" x="553.6094" y="1196.0322">Show manual SSH instructions</text><ellipse cx="641.3096" cy="1239.5635" fill="none" rx="11" ry="11" style="stroke:#222222;stroke-width:1;"/><ellipse cx="641.3096" cy="1239.5635" fill="#222222" rx="6" ry="6" style="stroke:#222222;stroke-width:1;"/><rect fill="#F1F1F1" height="34.1328" rx="12.5" ry="12.5" style="stroke:#181818;stroke-width:0.5;" width="124.4785" x="1004.1367" y="1174.4307"/><text fill="#000000" font-family="sans-serif" font-size="12" lengthAdjust="spacing" textLength="104.4785" x="1014.1367" y="1196.0322">Get Git user email</text><rect fill="#F1F1F1" height="34.1328" rx="12.5" ry="12.5" style="stroke:#181818;stroke-width:0.5;" width="167.2578" x="982.7471" y="1277.041"/><text fill="#000000" font-family="sans-serif" font-size="12" lengthAdjust="spacing" textLength="147.2578" x="992.7471" y="1298.6426">Prompt for email address</text><rect fill="#F1F1F1" height="34.1328" rx="12.5" ry="12.5" style="stroke:#181818;stroke-width:0.5;" width="160.9707" x="985.8906" y="1346.1738"/><text fill="#000000" font-family="sans-serif" font-size="12" lengthAdjust="spacing" textLength="140.9707" x="995.8906" y="1367.7754">Configure git user.email</text><polygon fill="#F1F1F1" points="1009.6975,1228.5635,1123.0544,1228.5635,1135.0544,1240.5635,1123.0544,1252.5635,1009.6975,1252.5635,997.6975,1240.5635,1009.6975,1228.5635" style="stroke:#181818;stroke-width:0.5;"/><text fill="#000000" font-family="sans-serif" font-size="11" lengthAdjust="spacing" textLength="13.5835" x="1070.376" y="1263.1982">no</text><text fill="#000000" font-family="sans-serif" font-size="11" lengthAdjust="spacing" textLength="113.3569" x="1009.6975" y="1244.7207">Git email configured?</text><polygon fill="#F1F1F1" points="1066.376,1400.3066,1078.376,1412.3066,1066.376,1424.3066,1054.376,1412.3066,1066.376,1400.3066" style="stroke:#181818;stroke-width:0.5;"/><rect fill="#F1F1F1" height="34.1328" rx="12.5" ry="12.5" style="stroke:#181818;stroke-width:0.5;" width="181.8242" x="975.4639" y="1444.3066"/><text fill="#000000" font-family="sans-serif" font-size="12" lengthAdjust="spacing" textLength="161.8242" x="985.4639" y="1465.9082">Check for existing SSH keys</text><polygon fill="#F1F1F1" points="1014.9075,1498.4395,1117.8445,1498.4395,1129.8445,1510.4395,1117.8445,1522.4395,1014.9075,1522.4395,1002.9075,1510.4395,1014.9075,1498.4395" style="stroke:#181818;stroke-width:0.5;"/><text fill="#000000" font-family="sans-serif" font-size="11" lengthAdjust="spacing" textLength="102.937" x="1014.9075" y="1514.5967">id_ed25519 exists?</text><text fill="#000000" font-family="sans-serif" font-size="11" lengthAdjust="spacing" textLength="17.4829" x="985.4246" y="1508.1191">yes</text><text fill="#000000" font-family="sans-serif" font-size="11" lengthAdjust="spacing" textLength="13.5835" x="1129.8445" y="1508.1191">no</text><rect fill="#F1F1F1" height="34.1328" rx="12.5" ry="12.5" style="stroke:#181818;stroke-width:0.5;" width="230.8438" x="804.7197" y="1532.4395"/><text fill="#000000" font-family="sans-serif" font-size="12" lengthAdjust="spacing" textLength="210.8438" x="814.7197" y="1554.041">Prompt: "SSH key exists. Overwrite?"</text><polygon fill="#F1F1F1" points="880.7419,1586.5723,959.5413,1586.5723,971.5413,1598.5723,959.5413,1610.5723,880.7419,1610.5723,868.7419,1598.5723,880.7419,1586.5723" style="stroke:#181818;stroke-width:0.5;"/><text fill="#000000" font-family="sans-serif" font-size="11" lengthAdjust="spacing" textLength="78.7993" x="880.7419" y="1602.7295">User confirms?</text><text fill="#000000" font-family="sans-serif" font-size="11" lengthAdjust="spacing" textLength="13.5835" x="855.1584" y="1596.252">no</text><text fill="#000000" font-family="sans-serif" font-size="11" lengthAdjust="spacing" textLength="17.4829" x="971.5413" y="1596.252">yes</text><rect fill="#F1F1F1" height="34.1328" rx="12.5" ry="12.5" style="stroke:#181818;stroke-width:0.5;" width="115.1973" x="779.0098" y="1620.5723"/><text fill="#000000" font-family="sans-serif" font-size="12" lengthAdjust="spacing" textLength="95.1973" x="789.0098" y="1642.1738">Use existing key</text><rect fill="#F1F1F1" height="34.1328" rx="12.5" ry="12.5" style="stroke:#181818;stroke-width:0.5;" width="178.9355" x="914.207" y="1620.5723"/><text fill="#000000" font-family="sans-serif" font-size="12" lengthAdjust="spacing" textLength="158.9355" x="924.207" y="1642.1738">Generate new Ed25519 key</text><polygon fill="#F1F1F1" points="920.1416,1660.7051,932.1416,1672.7051,920.1416,1684.7051,908.1416,1672.7051,920.1416,1660.7051" style="stroke:#181818;stroke-width:0.5;"/><rect fill="#F1F1F1" height="34.1328" rx="12.5" ry="12.5" style="stroke:#181818;stroke-width:0.5;" width="178.9355" x="1123.1426" y="1532.4395"/><text fill="#000000" font-family="sans-serif" font-size="12" lengthAdjust="spacing" textLength="158.9355" x="1133.1426" y="1554.041">Generate new Ed25519 key</text><polygon fill="#F1F1F1" points="1066.376,1690.7051,1078.376,1702.7051,1066.376,1714.7051,1054.376,1702.7051,1066.376,1690.7051" style="stroke:#181818;stroke-width:0.5;"/><rect fill="#F1F1F1" height="34.1328" rx="12.5" ry="12.5" style="stroke:#181818;stroke-width:0.5;" width="167.1289" x="982.8115" y="1734.7051"/><text fill="#000000" font-family="sans-serif" font-size="12" lengthAdjust="spacing" textLength="147.1289" x="992.8115" y="1756.3066">Start SSH agent if needed</text><rect fill="#F1F1F1" height="34.1328" rx="12.5" ry="12.5" style="stroke:#181818;stroke-width:0.5;" width="144.875" x="993.9385" y="1788.8379"/><text fill="#000000" font-family="sans-serif" font-size="12" lengthAdjust="spacing" textLength="124.875" x="1003.9385" y="1810.4395">Add SSH key to agent</text><rect fill="#F1F1F1" height="34.1328" rx="12.5" ry="12.5" style="stroke:#181818;stroke-width:0.5;" width="182.4805" x="975.1357" y="1842.9707"/><text fill="#000000" font-family="sans-serif" font-size="12" lengthAdjust="spacing" textLength="162.4805" x="985.1357" y="1864.5723">Test GitHub SSH connection</text><polygon fill="#F1F1F1" points="1004.4365,1897.1035,1128.3154,1897.1035,1140.3154,1909.1035,1128.3154,1921.1035,1004.4365,1921.1035,992.4365,1909.1035,1004.4365,1897.1035" style="stroke:#181818;stroke-width:0.5;"/><text fill="#000000" font-family="sans-serif" font-size="11" lengthAdjust="spacing" textLength="123.8789" x="1004.4365" y="1913.2607">Connection successful?</text><text fill="#000000" font-family="sans-serif" font-size="11" lengthAdjust="spacing" textLength="17.4829" x="974.9536" y="1906.7832">yes</text><text fill="#000000" font-family="sans-serif" font-size="11" lengthAdjust="spacing" textLength="13.5835" x="1140.3154" y="1906.7832">no</text><rect fill="#F1F1F1" height="34.1328" rx="12.5" ry="12.5" style="stroke:#181818;stroke-width:0.5;" width="153.8164" x="889.5269" y="1931.1035"/><text fill="#000000" font-family="sans-serif" font-size="12" lengthAdjust="spacing" textLength="133.8164" x="899.5269" y="1952.7051">Show success message</text><rect fill="#F1F1F1" height="34.1328" rx="12.5" ry="12.5" style="stroke:#181818;stroke-width:0.5;" width="135.2305" x="898.8198" y="1985.2363"/><text fill="#000000" font-family="sans-serif" font-size="12" lengthAdjust="spacing" textLength="115.2305" x="908.8198" y="2006.8379">SSH setup complete</text><ellipse cx="966.4351" cy="2050.3691" fill="none" rx="11" ry="11" style="stroke:#222222;stroke-width:1;"/><ellipse cx="966.4351" cy="2050.3691" fill="#222222" rx="6" ry="6" style="stroke:#222222;stroke-width:1;"/><rect fill="#F1F1F1" height="34.1328" rx="12.5" ry="12.5" style="stroke:#181818;stroke-width:0.5;" width="205.9473" x="1063.3433" y="1931.1035"/><text fill="#000000" font-family="sans-serif" font-size="12" lengthAdjust="spacing" textLength="185.9473" x="1073.3433" y="1952.7051">Show manual setup instructions</text><rect fill="#F1F1F1" height="34.1328" rx="12.5" ry="12.5" style="stroke:#181818;stroke-width:0.5;" width="195.7168" x="1068.4585" y="1985.2363"/><text fill="#000000" font-family="sans-serif" font-size="12" lengthAdjust="spacing" textLength="175.7168" x="1078.4585" y="2006.8379">Display public key for copying</text><rect fill="#F1F1F1" height="34.1328" rx="12.5" ry="12.5" style="stroke:#181818;stroke-width:0.5;" width="170.9609" x="1080.8364" y="2039.3691"/><text fill="#000000" font-family="sans-serif" font-size="12" lengthAdjust="spacing" textLength="150.9609" x="1090.8364" y="2060.9707">Show GitHub settings URL</text><rect fill="#F1F1F1" height="34.1328" rx="12.5" ry="12.5" style="stroke:#181818;stroke-width:0.5;" width="149.7559" x="1091.439" y="2093.502"/><text fill="#000000" font-family="sans-serif" font-size="12" lengthAdjust="spacing" textLength="129.7559" x="1101.439" y="2115.1035">Provide test command</text><ellipse cx="1166.3169" cy="2158.6348" fill="none" rx="11" ry="11" style="stroke:#222222;stroke-width:1;"/><ellipse cx="1166.3169" cy="2158.6348" fill="#222222" rx="6" ry="6" style="stroke:#222222;stroke-width:1;"/><line style="stroke:#181818;stroke-width:1;" x1="657.1943" x2="657.1943" y1="83.9766" y2="103.9766"/><polygon fill="#181818" points="653.1943,93.9766,657.1943,103.9766,661.1943,93.9766,657.1943,97.9766" style="stroke:#181818;stroke-width:1;"/><line style="stroke:#181818;stroke-width:1;" x1="460.5459" x2="460.5459" y1="777.4219" y2="797.4219"/><polygon fill="#181818" points="456.5459,787.4219,460.5459,797.4219,464.5459,787.4219,460.5459,791.4219" style="stroke:#181818;stroke-width:1;"/><line style="stroke:#181818;stroke-width:1;" x1="766.7896" x2="766.7896" y1="968.165" y2="988.165"/><polygon fill="#181818" points="762.7896,978.165,766.7896,988.165,770.7896,978.165,766.7896,982.165" style="stroke:#181818;stroke-width:1;"/><line style="stroke:#181818;stroke-width:1;" x1="940.896" x2="940.896" y1="968.165" y2="988.165"/><polygon fill="#181818" points="936.896,978.165,940.896,988.165,944.896,978.165,940.896,982.165" style="stroke:#181818;stroke-width:1;"/><line style="stroke:#181818;stroke-width:1;" x1="779.9033" x2="766.7896" y1="912.0322" y2="912.0322"/><line style="stroke:#181818;stroke-width:1;" x1="766.7896" x2="766.7896" y1="912.0322" y2="934.0322"/><polygon fill="#181818" points="762.7896,924.0322,766.7896,934.0322,770.7896,924.0322,766.7896,928.0322" style="stroke:#181818;stroke-width:1;"/><line style="stroke:#181818;stroke-width:1;" x1="927.7822" x2="940.896" y1="912.0322" y2="912.0322"/><line style="stroke:#181818;stroke-width:1;" x1="940.896" x2="940.896" y1="912.0322" y2="934.0322"/><polygon fill="#181818" points="936.896,924.0322,940.896,934.0322,944.896,924.0322,940.896,928.0322" style="stroke:#181818;stroke-width:1;"/><line style="stroke:#181818;stroke-width:1;" x1="940.896" x2="940.896" y1="1022.2979" y2="1027.2979"/><line style="stroke:#181818;stroke-width:1;" x1="940.896" x2="853.8428" y1="1027.2979" y2="1027.2979"/><line style="stroke:#181818;stroke-width:1;" x1="853.8428" x2="853.8428" y1="1027.2979" y2="1042.2979"/><polygon fill="#181818" points="849.8428,1032.2979,853.8428,1042.2979,857.8428,1032.2979,853.8428,1036.2979" style="stroke:#181818;stroke-width:1;"/><line style="stroke:#181818;stroke-width:1;" x1="853.8428" x2="853.8428" y1="880.0322" y2="900.0322"/><polygon fill="#181818" points="849.8428,890.0322,853.8428,900.0322,857.8428,890.0322,853.8428,894.0322" style="stroke:#181818;stroke-width:1;"/><line style="stroke:#181818;stroke-width:1;" x1="853.8428" x2="853.8428" y1="821.4219" y2="845.8994"/><polygon fill="#181818" points="849.8428,835.8994,853.8428,845.8994,857.8428,835.8994,853.8428,839.8994" style="stroke:#181818;stroke-width:1;"/><line style="stroke:#181818;stroke-width:1;" x1="929.7642" x2="1047.3872" y1="809.4219" y2="809.4219"/><polygon fill="#181818" points="1043.3872,927.0986,1047.3872,937.0986,1051.3872,927.0986,1047.3872,931.0986" style="stroke:#181818;stroke-width:1;"/><line style="stroke:#181818;stroke-width:1;" x1="1047.3872" x2="1047.3872" y1="809.4219" y2="1054.2979"/><line style="stroke:#181818;stroke-width:1;" x1="1047.3872" x2="865.8428" y1="1054.2979" y2="1054.2979"/><polygon fill="#181818" points="875.8428,1050.2979,865.8428,1054.2979,875.8428,1058.2979,871.8428,1054.2979" style="stroke:#181818;stroke-width:1;"/><line style="stroke:#181818;stroke-width:1;" x1="853.8428" x2="853.8428" y1="777.4219" y2="797.4219"/><polygon fill="#181818" points="849.8428,787.4219,853.8428,797.4219,857.8428,787.4219,853.8428,791.4219" style="stroke:#181818;stroke-width:1;"/><line style="stroke:#181818;stroke-width:1;" x1="853.8428" x2="853.8428" y1="1066.2979" y2="1086.2979"/><polygon fill="#181818" points="849.8428,1076.2979,853.8428,1086.2979,857.8428,1076.2979,853.8428,1080.2979" style="stroke:#181818;stroke-width:1;"/><line style="stroke:#181818;stroke-width:1;" x1="641.3096" x2="641.3096" y1="1208.5635" y2="1228.5635"/><polygon fill="#181818" points="637.3096,1218.5635,641.3096,1228.5635,645.3096,1218.5635,641.3096,1222.5635" style="stroke:#181818;stroke-width:1;"/><line style="stroke:#181818;stroke-width:1;" x1="1066.376" x2="1066.376" y1="1311.1738" y2="1346.1738"/><polygon fill="#181818" points="1062.376,1336.1738,1066.376,1346.1738,1070.376,1336.1738,1066.376,1340.1738" style="stroke:#181818;stroke-width:1;"/><line style="stroke:#181818;stroke-width:1;" x1="1066.376" x2="1066.376" y1="1252.5635" y2="1277.041"/><polygon fill="#181818" points="1062.376,1267.041,1066.376,1277.041,1070.376,1267.041,1066.376,1271.041" style="stroke:#181818;stroke-width:1;"/><line style="stroke:#181818;stroke-width:1;" x1="1135.0544" x2="1160.0049" y1="1240.5635" y2="1240.5635"/><polygon fill="#181818" points="1156.0049,1318.6738,1160.0049,1328.6738,1164.0049,1318.6738,1160.0049,1322.6738" style="stroke:#181818;stroke-width:1;"/><line style="stroke:#181818;stroke-width:1;" x1="1160.0049" x2="1160.0049" y1="1240.5635" y2="1412.3066"/><line style="stroke:#181818;stroke-width:1;" x1="1160.0049" x2="1078.376" y1="1412.3066" y2="1412.3066"/><polygon fill="#181818" points="1088.376,1408.3066,1078.376,1412.3066,1088.376,1416.3066,1084.376,1412.3066" style="stroke:#181818;stroke-width:1;"/><line style="stroke:#181818;stroke-width:1;" x1="1066.376" x2="1066.376" y1="1380.3066" y2="1400.3066"/><polygon fill="#181818" points="1062.376,1390.3066,1066.376,1400.3066,1070.376,1390.3066,1066.376,1394.3066" style="stroke:#181818;stroke-width:1;"/><line style="stroke:#181818;stroke-width:1;" x1="1066.376" x2="1066.376" y1="1208.5635" y2="1228.5635"/><polygon fill="#181818" points="1062.376,1218.5635,1066.376,1228.5635,1070.376,1218.5635,1066.376,1222.5635" style="stroke:#181818;stroke-width:1;"/><line style="stroke:#181818;stroke-width:1;" x1="1066.376" x2="1066.376" y1="1424.3066" y2="1444.3066"/><polygon fill="#181818" points="1062.376,1434.3066,1066.376,1444.3066,1070.376,1434.3066,1066.376,1438.3066" style="stroke:#181818;stroke-width:1;"/><line style="stroke:#181818;stroke-width:1;" x1="868.7419" x2="836.6084" y1="1598.5723" y2="1598.5723"/><line style="stroke:#181818;stroke-width:1;" x1="836.6084" x2="836.6084" y1="1598.5723" y2="1620.5723"/><polygon fill="#181818" points="832.6084,1610.5723,836.6084,1620.5723,840.6084,1610.5723,836.6084,1614.5723" style="stroke:#181818;stroke-width:1;"/><line style="stroke:#181818;stroke-width:1;" x1="971.5413" x2="1003.6748" y1="1598.5723" y2="1598.5723"/><line style="stroke:#181818;stroke-width:1;" x1="1003.6748" x2="1003.6748" y1="1598.5723" y2="1620.5723"/><polygon fill="#181818" points="999.6748,1610.5723,1003.6748,1620.5723,1007.6748,1610.5723,1003.6748,1614.5723" style="stroke:#181818;stroke-width:1;"/><line style="stroke:#181818;stroke-width:1;" x1="836.6084" x2="836.6084" y1="1654.7051" y2="1672.7051"/><line style="stroke:#181818;stroke-width:1;" x1="836.6084" x2="908.1416" y1="1672.7051" y2="1672.7051"/><polygon fill="#181818" points="898.1416,1668.7051,908.1416,1672.7051,898.1416,1676.7051,902.1416,1672.7051" style="stroke:#181818;stroke-width:1;"/><line style="stroke:#181818;stroke-width:1;" x1="1003.6748" x2="1003.6748" y1="1654.7051" y2="1672.7051"/><line style="stroke:#181818;stroke-width:1;" x1="1003.6748" x2="932.1416" y1="1672.7051" y2="1672.7051"/><polygon fill="#181818" points="942.1416,1668.7051,932.1416,1672.7051,942.1416,1676.7051,938.1416,1672.7051" style="stroke:#181818;stroke-width:1;"/><line style="stroke:#181818;stroke-width:1;" x1="920.1416" x2="920.1416" y1="1566.5723" y2="1586.5723"/><polygon fill="#181818" points="916.1416,1576.5723,920.1416,1586.5723,924.1416,1576.5723,920.1416,1580.5723" style="stroke:#181818;stroke-width:1;"/><line style="stroke:#181818;stroke-width:1;" x1="1002.9075" x2="920.1416" y1="1510.4395" y2="1510.4395"/><line style="stroke:#181818;stroke-width:1;" x1="920.1416" x2="920.1416" y1="1510.4395" y2="1532.4395"/><polygon fill="#181818" points="916.1416,1522.4395,920.1416,1532.4395,924.1416,1522.4395,920.1416,1526.4395" style="stroke:#181818;stroke-width:1;"/><line style="stroke:#181818;stroke-width:1;" x1="1129.8445" x2="1212.6104" y1="1510.4395" y2="1510.4395"/><line style="stroke:#181818;stroke-width:1;" x1="1212.6104" x2="1212.6104" y1="1510.4395" y2="1532.4395"/><polygon fill="#181818" points="1208.6104,1522.4395,1212.6104,1532.4395,1216.6104,1522.4395,1212.6104,1526.4395" style="stroke:#181818;stroke-width:1;"/><line style="stroke:#181818;stroke-width:1;" x1="920.1416" x2="920.1416" y1="1684.7051" y2="1702.7051"/><line style="stroke:#181818;stroke-width:1;" x1="920.1416" x2="1054.376" y1="1702.7051" y2="1702.7051"/><polygon fill="#181818" points="1044.376,1698.7051,1054.376,1702.7051,1044.376,1706.7051,1048.376,1702.7051" style="stroke:#181818;stroke-width:1;"/><line style="stroke:#181818;stroke-width:1;" x1="1212.6104" x2="1212.6104" y1="1566.5723" y2="1702.7051"/><line style="stroke:#181818;stroke-width:1;" x1="1212.6104" x2="1078.376" y1="1702.7051" y2="1702.7051"/><polygon fill="#181818" points="1088.376,1698.7051,1078.376,1702.7051,1088.376,1706.7051,1084.376,1702.7051" style="stroke:#181818;stroke-width:1;"/><line style="stroke:#181818;stroke-width:1;" x1="1066.376" x2="1066.376" y1="1478.4395" y2="1498.4395"/><polygon fill="#181818" points="1062.376,1488.4395,1066.376,1498.4395,1070.376,1488.4395,1066.376,1492.4395" style="stroke:#181818;stroke-width:1;"/><line style="stroke:#181818;stroke-width:1;" x1="1066.376" x2="1066.376" y1="1714.7051" y2="1734.7051"/><polygon fill="#181818" points="1062.376,1724.7051,1066.376,1734.7051,1070.376,1724.7051,1066.376,1728.7051" style="stroke:#181818;stroke-width:1;"/><line style="stroke:#181818;stroke-width:1;" x1="1066.376" x2="1066.376" y1="1768.8379" y2="1788.8379"/><polygon fill="#181818" points="1062.376,1778.8379,1066.376,1788.8379,1070.376,1778.8379,1066.376,1782.8379" style="stroke:#181818;stroke-width:1;"/><line style="stroke:#181818;stroke-width:1;" x1="1066.376" x2="1066.376" y1="1822.9707" y2="1842.9707"/><polygon fill="#181818" points="1062.376,1832.9707,1066.376,1842.9707,1070.376,1832.9707,1066.376,1836.9707" style="stroke:#181818;stroke-width:1;"/><line style="stroke:#181818;stroke-width:1;" x1="966.4351" x2="966.4351" y1="1965.2363" y2="1985.2363"/><polygon fill="#181818" points="962.4351,1975.2363,966.4351,1985.2363,970.4351,1975.2363,966.4351,1979.2363" style="stroke:#181818;stroke-width:1;"/><line style="stroke:#181818;stroke-width:1;" x1="966.4351" x2="966.4351" y1="2019.3691" y2="2039.3691"/><polygon fill="#181818" points="962.4351,2029.3691,966.4351,2039.3691,970.4351,2029.3691,966.4351,2033.3691" style="stroke:#181818;stroke-width:1;"/><line style="stroke:#181818;stroke-width:1;" x1="1166.3169" x2="1166.3169" y1="1965.2363" y2="1985.2363"/><polygon fill="#181818" points="1162.3169,1975.2363,1166.3169,1985.2363,1170.3169,1975.2363,1166.3169,1979.2363" style="stroke:#181818;stroke-width:1;"/><line style="stroke:#181818;stroke-width:1;" x1="1166.3169" x2="1166.3169" y1="2019.3691" y2="2039.3691"/><polygon fill="#181818" points="1162.3169,2029.3691,1166.3169,2039.3691,1170.3169,2029.3691,1166.3169,2033.3691" style="stroke:#181818;stroke-width:1;"/><line style="stroke:#181818;stroke-width:1;" x1="1166.3169" x2="1166.3169" y1="2073.502" y2="2093.502"/><polygon fill="#181818" points="1162.3169,2083.502,1166.3169,2093.502,1170.3169,2083.502,1166.3169,2087.502" style="stroke:#181818;stroke-width:1;"/><line style="stroke:#181818;stroke-width:1;" x1="1166.3169" x2="1166.3169" y1="2127.6348" y2="2147.6348"/><polygon fill="#181818" points="1162.3169,2137.6348,1166.3169,2147.6348,1170.3169,2137.6348,1166.3169,2141.6348" style="stroke:#181818;stroke-width:1;"/><line style="stroke:#181818;stroke-width:1;" x1="992.4365" x2="966.4351" y1="1909.1035" y2="1909.1035"/><line style="stroke:#181818;stroke-width:1;" x1="966.4351" x2="966.4351" y1="1909.1035" y2="1931.1035"/><polygon fill="#181818" points="962.4351,1921.1035,966.4351,1931.1035,970.4351,1921.1035,966.4351,1925.1035" style="stroke:#181818;stroke-width:1;"/><line style="stroke:#181818;stroke-width:1;" x1="1140.3154" x2="1166.3169" y1="1909.1035" y2="1909.1035"/><line style="stroke:#181818;stroke-width:1;" x1="1166.3169" x2="1166.3169" y1="1909.1035" y2="1931.1035"/><polygon fill="#181818" points="1162.3169,1921.1035,1166.3169,1931.1035,1170.3169,1921.1035,1166.3169,1925.1035" style="stroke:#181818;stroke-width:1;"/><line style="stroke:#181818;stroke-width:1;" x1="1066.376" x2="1066.376" y1="1877.1035" y2="1897.1035"/><polygon fill="#181818" points="1062.376,1887.1035,1066.376,1897.1035,1070.376,1887.1035,1066.376,1891.1035" style="stroke:#181818;stroke-width:1;"/><line style="stroke:#181818;stroke-width:1;" x1="802.4431" x2="641.3096" y1="1152.4307" y2="1152.4307"/><line style="stroke:#181818;stroke-width:1;" x1="641.3096" x2="641.3096" y1="1152.4307" y2="1174.4307"/><polygon fill="#181818" points="637.3096,1164.4307,641.3096,1174.4307,645.3096,1164.4307,641.3096,1168.4307" style="stroke:#181818;stroke-width:1;"/><line style="stroke:#181818;stroke-width:1;" x1="905.2424" x2="1066.376" y1="1152.4307" y2="1152.4307"/><line style="stroke:#181818;stroke-width:1;" x1="1066.376" x2="1066.376" y1="1152.4307" y2="1174.4307"/><polygon fill="#181818" points="1062.376,1164.4307,1066.376,1174.4307,1070.376,1164.4307,1066.376,1168.4307" style="stroke:#181818;stroke-width:1;"/><line style="stroke:#181818;stroke-width:1;" x1="853.8428" x2="853.8428" y1="1120.4307" y2="1140.4307"/><polygon fill="#181818" points="849.8428,1130.4307,853.8428,1140.4307,857.8428,1130.4307,853.8428,1134.4307" style="stroke:#181818;stroke-width:1;"/><line style="stroke:#181818;stroke-width:1;" x1="582.0464" x2="460.5459" y1="721.2891" y2="721.2891"/><line style="stroke:#181818;stroke-width:1;" x1="460.5459" x2="460.5459" y1="721.2891" y2="743.2891"/><polygon fill="#181818" points="456.5459,733.2891,460.5459,743.2891,464.5459,733.2891,460.5459,737.2891" style="stroke:#181818;stroke-width:1;"/><line style="stroke:#181818;stroke-width:1;" x1="732.3423" x2="853.8428" y1="721.2891" y2="721.2891"/><line style="stroke:#181818;stroke-width:1;" x1="853.8428" x2="853.8428" y1="721.2891" y2="743.2891"/><polygon fill="#181818" points="849.8428,733.2891,853.8428,743.2891,857.8428,733.2891,853.8428,737.2891" style="stroke:#181818;stroke-width:1;"/><line style="stroke:#181818;stroke-width:1;" x1="657.1943" x2="657.1943" y1="138.1094" y2="709.2891"/><polygon fill="#181818" points="653.1943,699.2891,657.1943,709.2891,661.1943,699.2891,657.1943,703.2891" style="stroke:#181818;stroke-width:1;"/><!--SRC=[jLRDRjj64BxhAQQwL3OY2KxhGwb3uhg5NJHrZ2X1KQ10iIQ7uaBKBi5TIkQbwBFqqVeadPbTYjHFd5CCIB38sTcPx_lcnsjV8YoNzx14trJmkwtNUMbtVvgRnjkDyZgLjxzY2tTeiAOdre0o6TnQa-jL4vwCHiwhsez6oMs1wHfghApJtjOQ7UIs5YUVFhnpYv6n7g7Mgy8dyCxQjRnUQV-MFaNpD4lj9e5AUOyrkTKvJFZiaSF6P6ykm1TeO6BinGZeBrckTIKNESvb8G-TjzK8IuSmQT55mn0ZFcldjLd9aNIOJJWgNztzggnHPUtU3llxztx5zqTq7kwqls-UEiS6qzvhv_Hs_nnSawReNDwKvts6vBgyoEEcAj7Zui104kr-X8GxO7eVXTr9KBwspLE9hh2M4JZqb51ezBH1s14ZGp35jSbqFZhyBw3wM5DW7Xg7TGBZFbw3c64ssmi6mTZTc_5YZ-ydEX60hJVkXDO-yeqoZIeb0MsShnk1p_MnxJ4u8bnStA7m8l41RfGk3mdXT_Bu7CSdKCPaMRlXaCgocaWyXJBcl8fNpuwkxb7S8pdGgFWVwdIDhJkCMsT_OVRw-lhgXs3fNX1HY3goGwxYYHcytsAzgxN7ZfVX3L_cPty1cVRnqWM7pixGCg17kWk90tVmSqperCC1Mf-H-PTTVGxq9JSnmLcjq7ZEFgYtFvhSP5d717WR31TdV7srHi2b42rXGryKmU8hzOfOSS7N-PeJuv-qgqhLGaLTXIO6GyFAJMtLdhONyHo18Syi5SUpON6YrQtE43pZI7bGBDbBQHprfV0Tfas9kPTNbvUdm-poKbxTXXiISAwOKW94Aqof8qJvJ6zXpENx5fyLGyfZQWpJ7FwUp-Z4V525qmSOZyNd-qh0IkJ7V__yEt2O09TA9qvLhcYo-M83autDQF2z8cHIQXiN_L4AG5h7E95OMPwCCK54tJhNQPZCq1_8UOeM2ImhJ7NU1bOqZVlI1kFUb2DEuC7I2UUgebOi2HKt06kcEOrTavNjHT_k0vGtKYQoEnpY69E-cWcUePgc3YQo9eIY2SvUHmkggbCe9_oOuWwcFn9dkVO3F8b91sfBg2WQProEtCLj5QbrUqDAZJO8fAQG3NEif1_sPhp-k33s-gLWc7EKxQ1ckSpFI0Yc7u-M6Z5PnhgbKL5HV4Yj-5xBN31gWz_07xRvTek3Hb2sG3mKp77AqRyAaJmr-zwIMTg8IEQSZ1ICAx2aUIGUPa687uYWsb0-6Tru1HDy9aqm5goWuEU0sj_Yf9Mw_sLGzp7JAvxcrR3U4w3mJXcSaKL7CpVEm11Tbq3XVUMI-Rn7QDvrWpbFEJds7Lr4DwnX_82xhks6dBwVmQDoLDsiQrv8dTgYlBcU2Ik3ZliI9PsQkTwqRvbRHp161SM4MHnTiTQOIltHM82dDkPpA4dgJBGzKCVi40cQ8eP8ca2VZNRkMA03NJ8jVVd1H7QML1dUCg0a7THzOtZiUwvJkHH15jhndFjlRrVhhOfm6Tpo4lHCEpLct2fPG3Zw7m00]--></g></svg>